<?xml version="1.0" encoding="utf-8" ?>
<svg baseProfile="tiny" height="512" version="1.2" width="512" xmlns="http://www.w3.org/2000/svg" xmlns:ev="http://www.w3.org/2001/xml-events" xmlns:xlink="http://www.w3.org/1999/xlink"><defs><g fill="rgb(90%,90%,100%)" id="id4" stroke="blue" stroke-width="0.25"><polygon points="384.0,403.8017 320.0,440.7521 320.0,366.8513" /><polygon points="384.0,366.8513 352.0,385.3265 352.0,348.376" /><polygon points="384.0,348.376 368.0,357.6136 368.0,339.1384" /><polygon points="384.0,339.1384 376.0,343.7572 376.0,334.5196" /><polygon points="384.0,334.5196 380.0,336.829 380.0,332.2102" /><polygon points="384.0,343.7572 380.0,346.0666 380.0,341.4478" /><polygon points="376.0,339.1384 372.0,341.4478 372.0,336.829" /><polygon points="384.0,357.6136 376.0,362.2324 376.0,352.9948" /><polygon points="384.0,352.9948 380.0,355.3042 380.0,350.6854" /><polygon points="384.0,362.2324 380.0,364.5419 380.0,359.923" /><polygon points="376.0,357.6136 372.0,359.923 372.0,355.3042" /><polygon points="368.0,348.376 360.0,352.9948 360.0,343.7572" /><polygon points="368.0,343.7572 364.0,346.0666 364.0,341.4478" /><polygon points="368.0,352.9948 364.0,355.3042 364.0,350.6854" /><polygon points="360.0,348.376 356.0,350.6854 356.0,346.0666" /><polygon points="384.0,385.3265 368.0,394.5641 368.0,376.0889" /><polygon points="384.0,376.0889 376.0,380.7077 376.0,371.4701" /><polygon points="384.0,371.4701 380.0,373.7795 380.0,369.1607" /><polygon points="384.0,380.7077 380.0,383.0171 380.0,378.3983" /><polygon points="376.0,376.0889 372.0,378.3983 372.0,373.7795" /><polygon points="384.0,394.5641 376.0,399.1829 376.0,389.9453" /><polygon points="384.0,389.9453 380.0,392.2547 380.0,387.6359" /><polygon points="384.0,399.1829 380.0,401.4923 380.0,396.8735" /><polygon points="376.0,394.5641 372.0,396.8735 372.0,392.2547" /><polygon points="368.0,385.3265 360.0,389.9453 360.0,380.7077" /><polygon points="368.0,380.7077 364.0,383.0171 364.0,378.3983" /><polygon points="368.0,389.9453 364.0,392.2547 364.0,387.6359" /><polygon points="360.0,385.3265 356.0,387.6359 356.0,383.0171" /><polygon points="352.0,366.8513 336.0,376.0889 336.0,357.6136" /><polygon points="352.0,357.6136 344.0,362.2324 344.0,352.9948" /><polygon points="352.0,352.9948 348.0,355.3042 348.0,350.6854" /><polygon points="352.0,362.2324 348.0,364.5419 348.0,359.923" /><polygon points="344.0,357.6136 340.0,359.923 340.0,355.3042" /><polygon points="352.0,376.0889 344.0,380.7077 344.0,371.4701" /><polygon points="352.0,371.4701 348.0,373.7795 348.0,369.1607" /><polygon points="352.0,380.7077 348.0,383.0171 348.0,378.3983" /><polygon points="344.0,376.0889 340.0,378.3983 340.0,373.7795" /><polygon points="336.0,366.8513 328.0,371.4701 328.0,362.2324" /><polygon points="336.0,362.2324 332.0,364.5419 332.0,359.923" /><polygon points="336.0,371.4701 332.0,373.7795 332.0,369.1607" /><polygon points="328.0,366.8513 324.0,369.1607 324.0,364.5419" /><polygon points="384.0,440.7521 352.0,459.2273 352.0,422.2769" /><polygon points="384.0,422.2769 368.0,431.5145 368.0,413.0393" /><polygon points="384.0,413.0393 376.0,417.6581 376.0,408.4205" /><polygon points="384.0,408.4205 380.0,410.7299 380.0,406.1111" /><polygon points="384.0,417.6581 380.0,419.9675 380.0,415.3487" /><polygon points="376.0,413.0393 372.0,415.3487 372.0,410.7299" /><polygon points="384.0,431.5145 376.0,436.1333 376.0,426.8957" /><polygon points="384.0,426.8957 380.0,429.2051 380.0,424.5863" /><polygon points="384.0,436.1333 380.0,438.4427 380.0,433.8239" /><polygon points="376.0,431.5145 372.0,433.8239 372.0,429.2051" /><polygon points="368.0,422.2769 360.0,426.8957 360.0,417.6581" /><polygon points="368.0,417.6581 364.0,419.9675 364.0,415.3487" /><polygon points="368.0,426.8957 364.0,429.2051 364.0,424.5863" /><polygon points="360.0,422.2769 356.0,424.5863 356.0,419.9675" /><polygon points="384.0,459.2273 368.0,468.4649 368.0,449.9897" /><polygon points="384.0,449.9897 376.0,454.6085 376.0,445.3709" /><polygon points="384.0,445.3709 380.0,447.6803 380.0,443.0615" /><polygon points="384.0,454.6085 380.0,456.9179 380.0,452.2991" /><polygon points="376.0,449.9897 372.0,452.2991 372.0,447.6803" /><polygon points="384.0,468.4649 376.0,473.0837 376.0,463.8461" /><polygon points="384.0,463.8461 380.0,466.1555 380.0,461.5367" /><polygon points="384.0,473.0837 380.0,475.3931 380.0,470.7743" /><polygon points="376.0,468.4649 372.0,470.7743 372.0,466.1555" /><polygon points="368.0,459.2273 360.0,463.8461 360.0,454.6085" /><polygon points="368.0,454.6085 364.0,456.9179 364.0,452.2991" /><polygon points="368.0,463.8461 364.0,466.1555 364.0,461.5367" /><polygon points="360.0,459.2273 356.0,461.5367 356.0,456.9179" /><polygon points="352.0,440.7521 336.0,449.9897 336.0,431.5145" /><polygon points="352.0,431.5145 344.0,436.1333 344.0,426.8957" /><polygon points="352.0,426.8957 348.0,429.2051 348.0,424.5863" /><polygon points="352.0,436.1333 348.0,438.4427 348.0,433.8239" /><polygon points="344.0,431.5145 340.0,433.8239 340.0,429.2051" /><polygon points="352.0,449.9897 344.0,454.6085 344.0,445.3709" /><polygon points="352.0,445.3709 348.0,447.6803 348.0,443.0615" /><polygon points="352.0,454.6085 348.0,456.9179 348.0,452.2991" /><polygon points="344.0,449.9897 340.0,452.2991 340.0,447.6803" /><polygon points="336.0,440.7521 328.0,445.3709 328.0,436.1333" /><polygon points="336.0,436.1333 332.0,438.4427 332.0,433.8239" /><polygon points="336.0,445.3709 332.0,447.6803 332.0,443.0615" /><polygon points="328.0,440.7521 324.0,443.0615 324.0,438.4427" /><polygon points="320.0,403.8017 288.0,422.2769 288.0,385.3265" /><polygon points="320.0,385.3265 304.0,394.5641 304.0,376.0889" /><polygon points="320.0,376.0889 312.0,380.7077 312.0,371.4701" /><polygon points="320.0,371.4701 316.0,373.7795 316.0,369.1607" /><polygon points="320.0,380.7077 316.0,383.0171 316.0,378.3983" /><polygon points="312.0,376.0889 308.0,378.3983 308.0,373.7795" /><polygon points="320.0,394.5641 312.0,399.1829 312.0,389.9453" /><polygon points="320.0,389.9453 316.0,392.2547 316.0,387.6359" /><polygon points="320.0,399.1829 316.0,401.4923 316.0,396.8735" /><polygon points="312.0,394.5641 308.0,396.8735 308.0,392.2547" /><polygon points="304.0,385.3265 296.0,389.9453 296.0,380.7077" /><polygon points="304.0,380.7077 300.0,383.0171 300.0,378.3983" /><polygon points="304.0,389.9453 300.0,392.2547 300.0,387.6359" /><polygon points="296.0,385.3265 292.0,387.6359 292.0,383.0171" /><polygon points="320.0,422.2769 304.0,431.5145 304.0,413.0393" /><polygon points="320.0,413.0393 312.0,417.6581 312.0,408.4205" /><polygon points="320.0,408.4205 316.0,410.7299 316.0,406.1111" /><polygon points="320.0,417.6581 316.0,419.9675 316.0,415.3487" /><polygon points="312.0,413.0393 308.0,415.3487 308.0,410.7299" /><polygon points="320.0,431.5145 312.0,436.1333 312.0,426.8957" /><polygon points="320.0,426.8957 316.0,429.2051 316.0,424.5863" /><polygon points="320.0,436.1333 316.0,438.4427 316.0,433.8239" /><polygon points="312.0,431.5145 308.0,433.8239 308.0,429.2051" /><polygon points="304.0,422.2769 296.0,426.8957 296.0,417.6581" /><polygon points="304.0,417.6581 300.0,419.9675 300.0,415.3487" /><polygon points="304.0,426.8957 300.0,429.2051 300.0,424.5863" /><polygon points="296.0,422.2769 292.0,424.5863 292.0,419.9675" /><polygon points="288.0,403.8017 272.0,413.0393 272.0,394.5641" /><polygon points="288.0,394.5641 280.0,399.1829 280.0,389.9453" /><polygon points="288.0,389.9453 284.0,392.2547 284.0,387.6359" /><polygon points="288.0,399.1829 284.0,401.4923 284.0,396.8735" /><polygon points="280.0,394.5641 276.0,396.8735 276.0,392.2547" /><polygon points="288.0,413.0393 280.0,417.6581 280.0,408.4205" /><polygon points="288.0,408.4205 284.0,410.7299 284.0,406.1111" /><polygon points="288.0,417.6581 284.0,419.9675 284.0,415.3487" /><polygon points="280.0,413.0393 276.0,415.3487 276.0,410.7299" /><polygon points="272.0,403.8017 264.0,408.4205 264.0,399.1829" /><polygon points="272.0,399.1829 268.0,401.4923 268.0,396.8735" /><polygon points="272.0,408.4205 268.0,410.7299 268.0,406.1111" /><polygon points="264.0,403.8017 260.0,406.1111 260.0,401.4923" /><polygon points="469.3333,305.2672 448.0,317.584 448.0,292.9504" /><polygon points="469.3333,292.9504 458.6667,299.1088 458.6667,286.792" /><polygon points="469.3333,286.792 464.0,289.8712 464.0,283.7128" /><polygon points="469.3333,299.1088 464.0,302.188 464.0,296.0296" /><polygon points="458.6667,292.9504 453.3333,296.0296 453.3333,289.8712" /><polygon points="469.3333,317.584 458.6667,323.7424 458.6667,311.4256" /><polygon points="469.3333,311.4256 464.0,314.5048 464.0,308.3464" /><polygon points="469.3333,323.7424 464.0,326.8216 464.0,320.6632" /><polygon points="458.6667,317.584 453.3333,320.6632 453.3333,314.5048" /><polygon points="448.0,305.2672 437.3333,311.4256 437.3333,299.1088" /><polygon points="448.0,299.1088 442.6667,302.188 442.6667,296.0296" /><polygon points="448.0,311.4256 442.6667,314.5048 442.6667,308.3464" /><polygon points="437.3333,305.2672 432.0,308.3464 432.0,302.188" /><polygon points="497.7778,272.4224 490.6667,276.528 490.6667,268.3168" /><polygon points="497.7778,268.3168 494.2222,270.3696 494.2222,266.264" /><polygon points="497.7778,276.528 494.2222,278.5808 494.2222,274.4752" /><polygon points="490.6667,272.4224 487.1111,274.4752 487.1111,270.3696" /><polygon points="476.4444,301.1616 476.4444,309.3728 469.3333,305.2672" /><polygon points="472.8889,299.1088 472.8889,303.2144 469.3333,301.1616" /><polygon points="480.0,303.2144 480.0,307.32 476.4444,305.2672" /><polygon points="472.8889,307.32 472.8889,311.4256 469.3333,309.3728" /><polygon points="448.0,325.7952 440.8889,321.6896 448.0,317.584" /><polygon points="451.5556,323.7424 448.0,321.6896 451.5556,319.6368" /><polygon points="444.4444,327.848 440.8889,325.7952 444.4444,323.7424" /><polygon points="444.4444,319.6368 440.8889,317.584 444.4444,315.5312" /><polygon points="412.4444,321.6896 405.3333,325.7952 405.3333,317.584" /><polygon points="412.4444,317.584 408.8889,319.6368 408.8889,315.5312" /><polygon points="412.4444,325.7952 408.8889,327.848 408.8889,323.7424" /><polygon points="405.3333,321.6896 401.7778,323.7424 401.7778,319.6368" /><polygon points="405.3333,391.4849 405.3333,416.1185 384.0,403.8017" /><polygon points="394.6667,385.3265 394.6667,397.6433 384.0,391.4849" /><polygon points="389.3333,382.2473 389.3333,388.4057 384.0,385.3265" /><polygon points="400.0,388.4057 400.0,394.5641 394.6667,391.4849" /><polygon points="389.3333,394.5641 389.3333,400.7225 384.0,397.6433" /><polygon points="416.0,397.6433 416.0,409.9601 405.3333,403.8017" /><polygon points="410.6667,394.5641 410.6667,400.7225 405.3333,397.6433" /><polygon points="421.3333,400.7225 421.3333,406.8809 416.0,403.8017" /><polygon points="410.6667,406.8809 410.6667,413.0393 405.3333,409.9601" /><polygon points="394.6667,409.9601 394.6667,422.2769 384.0,416.1185" /><polygon points="389.3333,406.8809 389.3333,413.0393 384.0,409.9601" /><polygon points="400.0,413.0393 400.0,419.1977 394.6667,416.1185" /><polygon points="389.3333,419.1977 389.3333,425.3561 384.0,422.2769" /><polygon points="391.1111,350.4288 391.1111,358.64 384.0,354.5344" /><polygon points="387.5556,348.376 387.5556,352.4816 384.0,350.4288" /><polygon points="394.6667,352.4816 394.6667,356.5872 391.1111,354.5344" /><polygon points="387.5556,356.5872 387.5556,360.6928 384.0,358.64" /><polygon points="405.3333,383.2737 412.4444,387.3793 405.3333,391.4849" /><polygon points="401.7778,385.3265 405.3333,387.3793 401.7778,389.4321" /><polygon points="408.8889,381.2209 412.4444,383.2737 408.8889,385.3265" /><polygon points="408.8889,389.4321 412.4444,391.4849 408.8889,393.5377" /><polygon points="412.4444,420.2241 405.3333,424.3297 405.3333,416.1185" /><polygon points="412.4444,416.1185 408.8889,418.1713 408.8889,414.0657" /><polygon points="412.4444,424.3297 408.8889,426.3825 408.8889,422.2769" /><polygon points="405.3333,420.2241 401.7778,422.2769 401.7778,418.1713" /><polygon points="391.1111,448.9633 391.1111,457.1745 384.0,453.0689" /><polygon points="387.5556,446.9105 387.5556,451.0161 384.0,448.9633" /><polygon points="394.6667,451.0161 394.6667,455.1217 391.1111,453.0689" /><polygon points="387.5556,455.1217 387.5556,459.2273 384.0,457.1745" /><polygon points="320.0,465.3857 298.6667,453.0689 320.0,440.7521" /><polygon points="330.6667,459.2273 320.0,453.0689 330.6667,446.9105" /><polygon points="336.0,456.1481 330.6667,453.0689 336.0,449.9897" /><polygon points="325.3333,462.3065 320.0,459.2273 325.3333,456.1481" /><polygon points="325.3333,449.9897 320.0,446.9105 325.3333,443.8313" /><polygon points="309.3333,471.5441 298.6667,465.3857 309.3333,459.2273" /><polygon points="314.6667,468.4649 309.3333,465.3857 314.6667,462.3065" /><polygon points="304.0,474.6233 298.6667,471.5441 304.0,468.4649" /><polygon points="304.0,462.3065 298.6667,459.2273 304.0,456.1481" /><polygon points="309.3333,446.9105 298.6667,440.7521 309.3333,434.5937" /><polygon points="314.6667,443.8313 309.3333,440.7521 314.6667,437.6729" /><polygon points="304.0,449.9897 298.6667,446.9105 304.0,443.8313" /><polygon points="304.0,437.6729 298.6667,434.5937 304.0,431.5145" /><polygon points="362.6667,473.5969 355.5556,469.4913 362.6667,465.3857" /><polygon points="366.2222,471.5441 362.6667,469.4913 366.2222,467.4385" /><polygon points="359.1111,475.6497 355.5556,473.5969 359.1111,471.5441" /><polygon points="359.1111,467.4385 355.5556,465.3857 359.1111,463.3329" /><polygon points="327.1111,469.4913 320.0,473.5969 320.0,465.3857" /><polygon points="327.1111,465.3857 323.5556,467.4385 323.5556,463.3329" /><polygon points="327.1111,473.5969 323.5556,475.6497 323.5556,471.5441" /><polygon points="320.0,469.4913 316.4444,471.5441 316.4444,467.4385" /><polygon points="291.5556,457.1745 291.5556,448.9633 298.6667,453.0689" /><polygon points="295.1111,459.2273 295.1111,455.1217 298.6667,457.1745" /><polygon points="288.0,455.1217 288.0,451.0161 291.5556,453.0689" /><polygon points="295.1111,451.0161 295.1111,446.9105 298.6667,448.9633" /><polygon points="277.3333,424.3297 270.2222,420.2241 277.3333,416.1185" /><polygon points="280.8889,422.2769 277.3333,420.2241 280.8889,418.1713" /><polygon points="273.7778,426.3825 270.2222,424.3297 273.7778,422.2769" /><polygon points="273.7778,418.1713 270.2222,416.1185 273.7778,414.0657" /><polygon points="213.3333,453.0689 192.0,465.3857 192.0,440.7521" /><polygon points="213.3333,440.7521 202.6667,446.9105 202.6667,434.5937" /><polygon points="213.3333,434.5937 208.0,437.6729 208.0,431.5145" /><polygon points="213.3333,446.9105 208.0,449.9897 208.0,443.8313" /><polygon points="202.6667,440.7521 197.3333,443.8313 197.3333,437.6729" /><polygon points="213.3333,465.3857 202.6667,471.5441 202.6667,459.2273" /><polygon points="213.3333,459.2273 208.0,462.3065 208.0,456.1481" /><polygon points="213.3333,471.5441 208.0,474.6233 208.0,468.4649" /><polygon points="202.6667,465.3857 197.3333,468.4649 197.3333,462.3065" /><polygon points="192.0,453.0689 181.3333,459.2273 181.3333,446.9105" /><polygon points="192.0,446.9105 186.6667,449.9897 186.6667,443.8313" /><polygon points="192.0,459.2273 186.6667,462.3065 186.6667,456.1481" /><polygon points="181.3333,453.0689 176.0,456.1481 176.0,449.9897" /><polygon points="241.7778,420.2241 234.6667,424.3297 234.6667,416.1185" /><polygon points="241.7778,416.1185 238.2222,418.1713 238.2222,414.0657" /><polygon points="241.7778,424.3297 238.2222,426.3825 238.2222,422.2769" /><polygon points="234.6667,420.2241 231.1111,422.2769 231.1111,418.1713" /><polygon points="220.4444,448.9633 220.4444,457.1745 213.3333,453.0689" /><polygon points="216.8889,446.9105 216.8889,451.0161 213.3333,448.9633" /><polygon points="224.0,451.0161 224.0,455.1217 220.4444,453.0689" /><polygon points="216.8889,455.1217 216.8889,459.2273 213.3333,457.1745" /><polygon points="192.0,473.5969 184.8889,469.4913 192.0,465.3857" /><polygon points="195.5556,471.5441 192.0,469.4913 195.5556,467.4385" /><polygon points="188.4444,475.6497 184.8889,473.5969 188.4444,471.5441" /><polygon points="188.4444,467.4385 184.8889,465.3857 188.4444,463.3329" /><polygon points="156.4444,469.4913 149.3333,473.5969 149.3333,465.3857" /><polygon points="156.4444,465.3857 152.8889,467.4385 152.8889,463.3329" /><polygon points="156.4444,473.5969 152.8889,475.6497 152.8889,471.5441" /><polygon points="149.3333,469.4913 145.7778,471.5441 145.7778,467.4385" /><polygon points="64.0,292.9504 64.0,219.0496 128.0,256.0" /><polygon points="96.0,311.4256 96.0,274.4752 128.0,292.9504" /><polygon points="112.0,320.6632 112.0,302.188 128.0,311.4256" /><polygon points="120.0,325.282 120.0,316.0444 128.0,320.6632" /><polygon points="124.0,327.5914 124.0,322.9726 128.0,325.282" /><polygon points="116.0,322.9726 116.0,318.3538 120.0,320.6632" /><polygon points="124.0,318.3538 124.0,313.735 128.0,316.0444" /><polygon points="104.0,316.0444 104.0,306.8068 112.0,311.4256" /><polygon points="108.0,318.3538 108.0,313.735 112.0,316.0444" /><polygon points="100.0,313.735 100.0,309.1162 104.0,311.4256" /><polygon points="108.0,309.1162 108.0,304.4974 112.0,306.8068" /><polygon points="120.0,306.8068 120.0,297.5692 128.0,302.188" /><polygon points="124.0,309.1162 124.0,304.4974 128.0,306.8068" /><polygon points="116.0,304.4974 116.0,299.8786 120.0,302.188" /><polygon points="124.0,299.8786 124.0,295.2598 128.0,297.5692" /><polygon points="80.0,302.188 80.0,283.7128 96.0,292.9504" /><polygon points="88.0,306.8068 88.0,297.5692 96.0,302.188" /><polygon points="92.0,309.1162 92.0,304.4974 96.0,306.8068" /><polygon points="84.0,304.4974 84.0,299.8786 88.0,302.188" /><polygon points="92.0,299.8786 92.0,295.2598 96.0,297.5692" /><polygon points="72.0,297.5692 72.0,288.3316 80.0,292.9504" /><polygon points="76.0,299.8786 76.0,295.2598 80.0,297.5692" /><polygon points="68.0,295.2598 68.0,290.641 72.0,292.9504" /><polygon points="76.0,290.641 76.0,286.0222 80.0,288.3316" /><polygon points="88.0,288.3316 88.0,279.094 96.0,283.7128" /><polygon points="92.0,290.641 92.0,286.0222 96.0,288.3316" /><polygon points="84.0,286.0222 84.0,281.4034 88.0,283.7128" /><polygon points="92.0,281.4034 92.0,276.7846 96.0,279.094" /><polygon points="112.0,283.7128 112.0,265.2376 128.0,274.4752" /><polygon points="120.0,288.3316 120.0,279.094 128.0,283.7128" /><polygon points="124.0,290.641 124.0,286.0222 128.0,288.3316" /><polygon points="116.0,286.0222 116.0,281.4034 120.0,283.7128" /><polygon points="124.0,281.4034 124.0,276.7846 128.0,279.094" /><polygon points="104.0,279.094 104.0,269.8564 112.0,274.4752" /><polygon points="108.0,281.4034 108.0,276.7846 112.0,279.094" /><polygon points="100.0,276.7846 100.0,272.1658 104.0,274.4752" /><polygon points="108.0,272.1658 108.0,267.547 112.0,269.8564" /><polygon points="120.0,269.8564 120.0,260.6188 128.0,265.2376" /><polygon points="124.0,272.1658 124.0,267.547 128.0,269.8564" /><polygon points="116.0,267.547 116.0,262.9282 120.0,265.2376" /><polygon points="124.0,262.9282 124.0,258.3094 128.0,260.6188" /><polygon points="32.0,274.4752 32.0,237.5248 64.0,256.0" /><polygon points="48.0,283.7128 48.0,265.2376 64.0,274.4752" /><polygon points="56.0,288.3316 56.0,279.094 64.0,283.7128" /><polygon points="60.0,290.641 60.0,286.0222 64.0,288.3316" /><polygon points="52.0,286.0222 52.0,281.4034 56.0,283.7128" /><polygon points="60.0,281.4034 60.0,276.7846 64.0,279.094" /><polygon points="40.0,279.094 40.0,269.8564 48.0,274.4752" /><polygon points="44.0,281.4034 44.0,276.7846 48.0,279.094" /><polygon points="36.0,276.7846 36.0,272.1658 40.0,274.4752" /><polygon points="44.0,272.1658 44.0,267.547 48.0,269.8564" /><polygon points="56.0,269.8564 56.0,260.6188 64.0,265.2376" /><polygon points="60.0,272.1658 60.0,267.547 64.0,269.8564" /><polygon points="52.0,267.547 52.0,262.9282 56.0,265.2376" /><polygon points="60.0,262.9282 60.0,258.3094 64.0,260.6188" /><polygon points="16.0,265.2376 16.0,246.7624 32.0,256.0" /><polygon points="24.0,269.8564 24.0,260.6188 32.0,265.2376" /><polygon points="28.0,272.1658 28.0,267.547 32.0,269.8564" /><polygon points="20.0,267.547 20.0,262.9282 24.0,265.2376" /><polygon points="28.0,262.9282 28.0,258.3094 32.0,260.6188" /><polygon points="8.0,260.6188 8.0,251.3812 16.0,256.0" /><polygon points="12.0,262.9282 12.0,258.3094 16.0,260.6188" /><polygon points="4.0,258.3094 4.0,253.6906 8.0,256.0" /><polygon points="12.0,253.6906 12.0,249.0718 16.0,251.3812" /><polygon points="24.0,251.3812 24.0,242.1436 32.0,246.7624" /><polygon points="28.0,253.6906 28.0,249.0718 32.0,251.3812" /><polygon points="20.0,249.0718 20.0,244.453 24.0,246.7624" /><polygon points="28.0,244.453 28.0,239.8342 32.0,242.1436" /><polygon points="48.0,246.7624 48.0,228.2872 64.0,237.5248" /><polygon points="56.0,251.3812 56.0,242.1436 64.0,246.7624" /><polygon points="60.0,253.6906 60.0,249.0718 64.0,251.3812" /><polygon points="52.0,249.0718 52.0,244.453 56.0,246.7624" /><polygon points="60.0,244.453 60.0,239.8342 64.0,242.1436" /><polygon points="40.0,242.1436 40.0,232.906 48.0,237.5248" /><polygon points="44.0,244.453 44.0,239.8342 48.0,242.1436" /><polygon points="36.0,239.8342 36.0,235.2154 40.0,237.5248" /><polygon points="44.0,235.2154 44.0,230.5966 48.0,232.906" /><polygon points="56.0,232.906 56.0,223.6684 64.0,228.2872" /><polygon points="60.0,235.2154 60.0,230.5966 64.0,232.906" /><polygon points="52.0,230.5966 52.0,225.9778 56.0,228.2872" /><polygon points="60.0,225.9778 60.0,221.359 64.0,223.6684" /><polygon points="96.0,237.5248 96.0,200.5744 128.0,219.0496" /><polygon points="112.0,246.7624 112.0,228.2872 128.0,237.5248" /><polygon points="120.0,251.3812 120.0,242.1436 128.0,246.7624" /><polygon points="124.0,253.6906 124.0,249.0718 128.0,251.3812" /><polygon points="116.0,249.0718 116.0,244.453 120.0,246.7624" /><polygon points="124.0,244.453 124.0,239.8342 128.0,242.1436" /><polygon points="104.0,242.1436 104.0,232.906 112.0,237.5248" /><polygon points="108.0,244.453 108.0,239.8342 112.0,242.1436" /><polygon points="100.0,239.8342 100.0,235.2154 104.0,237.5248" /><polygon points="108.0,235.2154 108.0,230.5966 112.0,232.906" /><polygon points="120.0,232.906 120.0,223.6684 128.0,228.2872" /><polygon points="124.0,235.2154 124.0,230.5966 128.0,232.906" /><polygon points="116.0,230.5966 116.0,225.9778 120.0,228.2872" /><polygon points="124.0,225.9778 124.0,221.359 128.0,223.6684" /><polygon points="80.0,228.2872 80.0,209.812 96.0,219.0496" /><polygon points="88.0,232.906 88.0,223.6684 96.0,228.2872" /><polygon points="92.0,235.2154 92.0,230.5966 96.0,232.906" /><polygon points="84.0,230.5966 84.0,225.9778 88.0,228.2872" /><polygon points="92.0,225.9778 92.0,221.359 96.0,223.6684" /><polygon points="72.0,223.6684 72.0,214.4308 80.0,219.0496" /><polygon points="76.0,225.9778 76.0,221.359 80.0,223.6684" /><polygon points="68.0,221.359 68.0,216.7402 72.0,219.0496" /><polygon points="76.0,216.7402 76.0,212.1214 80.0,214.4308" /><polygon points="88.0,214.4308 88.0,205.1932 96.0,209.812" /><polygon points="92.0,216.7402 92.0,212.1214 96.0,214.4308" /><polygon points="84.0,212.1214 84.0,207.5026 88.0,209.812" /><polygon points="92.0,207.5026 92.0,202.8838 96.0,205.1932" /><polygon points="112.0,209.812 112.0,191.3368 128.0,200.5744" /><polygon points="120.0,214.4308 120.0,205.1932 128.0,209.812" /><polygon points="124.0,216.7402 124.0,212.1214 128.0,214.4308" /><polygon points="116.0,212.1214 116.0,207.5026 120.0,209.812" /><polygon points="124.0,207.5026 124.0,202.8838 128.0,205.1932" /><polygon points="104.0,205.1932 104.0,195.9556 112.0,200.5744" /><polygon points="108.0,207.5026 108.0,202.8838 112.0,205.1932" /><polygon points="100.0,202.8838 100.0,198.265 104.0,200.5744" /><polygon points="108.0,198.265 108.0,193.6462 112.0,195.9556" /><polygon points="120.0,195.9556 120.0,186.718 128.0,191.3368" /><polygon points="124.0,198.265 124.0,193.6462 128.0,195.9556" /><polygon points="116.0,193.6462 116.0,189.0274 120.0,191.3368" /><polygon points="124.0,189.0274 124.0,184.4086 128.0,186.718" /><polygon points="106.6667,416.1185 106.6667,391.4849 128.0,403.8017" /><polygon points="117.3333,422.2769 117.3333,409.9601 128.0,416.1185" /><polygon points="122.6667,425.3561 122.6667,419.1977 128.0,422.2769" /><polygon points="112.0,419.1977 112.0,413.0393 117.3333,416.1185" /><polygon points="122.6667,413.0393 122.6667,406.8809 128.0,409.9601" /><polygon points="96.0,409.9601 96.0,397.6433 106.6667,403.8017" /><polygon points="101.3333,413.0393 101.3333,406.8809 106.6667,409.9601" /><polygon points="90.6667,406.8809 90.6667,400.7225 96.0,403.8017" /><polygon points="101.3333,400.7225 101.3333,394.5641 106.6667,397.6433" /><polygon points="117.3333,397.6433 117.3333,385.3265 128.0,391.4849" /><polygon points="122.6667,400.7225 122.6667,394.5641 128.0,397.6433" /><polygon points="112.0,394.5641 112.0,388.4057 117.3333,391.4849" /><polygon points="122.6667,388.4057 122.6667,382.2473 128.0,385.3265" /><polygon points="120.8889,457.1745 120.8889,448.9633 128.0,453.0689" /><polygon points="124.4444,459.2273 124.4444,455.1217 128.0,457.1745" /><polygon points="117.3333,455.1217 117.3333,451.0161 120.8889,453.0689" /><polygon points="124.4444,451.0161 124.4444,446.9105 128.0,448.9633" /><polygon points="106.6667,424.3297 99.5556,420.2241 106.6667,416.1185" /><polygon points="110.2222,422.2769 106.6667,420.2241 110.2222,418.1713" /><polygon points="103.1111,426.3825 99.5556,424.3297 103.1111,422.2769" /><polygon points="103.1111,418.1713 99.5556,416.1185 103.1111,414.0657" /><polygon points="99.5556,387.3793 106.6667,383.2737 106.6667,391.4849" /><polygon points="99.5556,391.4849 103.1111,389.4321 103.1111,393.5377" /><polygon points="99.5556,383.2737 103.1111,381.2209 103.1111,385.3265" /><polygon points="106.6667,387.3793 110.2222,385.3265 110.2222,389.4321" /><polygon points="120.8889,358.64 120.8889,350.4288 128.0,354.5344" /><polygon points="124.4444,360.6928 124.4444,356.5872 128.0,358.64" /><polygon points="117.3333,356.5872 117.3333,352.4816 120.8889,354.5344" /><polygon points="124.4444,352.4816 124.4444,348.376 128.0,350.4288" /><polygon points="64.0,317.584 42.6667,305.2672 64.0,292.9504" /><polygon points="74.6667,311.4256 64.0,305.2672 74.6667,299.1088" /><polygon points="80.0,308.3464 74.6667,305.2672 80.0,302.188" /><polygon points="69.3333,314.5048 64.0,311.4256 69.3333,308.3464" /><polygon points="69.3333,302.188 64.0,299.1088 69.3333,296.0296" /><polygon points="53.3333,323.7424 42.6667,317.584 53.3333,311.4256" /><polygon points="58.6667,320.6632 53.3333,317.584 58.6667,314.5048" /><polygon points="48.0,326.8216 42.6667,323.7424 48.0,320.6632" /><polygon points="48.0,314.5048 42.6667,311.4256 48.0,308.3464" /><polygon points="53.3333,299.1088 42.6667,292.9504 53.3333,286.792" /><polygon points="58.6667,296.0296 53.3333,292.9504 58.6667,289.8712" /><polygon points="48.0,302.188 42.6667,299.1088 48.0,296.0296" /><polygon points="48.0,289.8712 42.6667,286.792 48.0,283.7128" /><polygon points="106.6667,325.7952 99.5556,321.6896 106.6667,317.584" /><polygon points="110.2222,323.7424 106.6667,321.6896 110.2222,319.6368" /><polygon points="103.1111,327.848 99.5556,325.7952 103.1111,323.7424" /><polygon points="103.1111,319.6368 99.5556,317.584 103.1111,315.5312" /><polygon points="71.1111,321.6896 64.0,325.7952 64.0,317.584" /><polygon points="71.1111,317.584 67.5556,319.6368 67.5556,315.5312" /><polygon points="71.1111,325.7952 67.5556,327.848 67.5556,323.7424" /><polygon points="64.0,321.6896 60.4444,323.7424 60.4444,319.6368" /><polygon points="35.5556,309.3728 35.5556,301.1616 42.6667,305.2672" /><polygon points="39.1111,311.4256 39.1111,307.32 42.6667,309.3728" /><polygon points="32.0,307.32 32.0,303.2144 35.5556,305.2672" /><polygon points="39.1111,303.2144 39.1111,299.1088 42.6667,301.1616" /><polygon points="21.3333,276.528 14.2222,272.4224 21.3333,268.3168" /><polygon points="24.8889,274.4752 21.3333,272.4224 24.8889,270.3696" /><polygon points="17.7778,278.5808 14.2222,276.528 17.7778,274.4752" /><polygon points="17.7778,270.3696 14.2222,268.3168 17.7778,266.264" /><polygon points="42.6667,206.7328 64.0,194.416 64.0,219.0496" /><polygon points="42.6667,219.0496 53.3333,212.8912 53.3333,225.208" /><polygon points="42.6667,225.208 48.0,222.1288 48.0,228.2872" /><polygon points="42.6667,212.8912 48.0,209.812 48.0,215.9704" /><polygon points="53.3333,219.0496 58.6667,215.9704 58.6667,222.1288" /><polygon points="42.6667,194.416 53.3333,188.2576 53.3333,200.5744" /><polygon points="42.6667,200.5744 48.0,197.4952 48.0,203.6536" /><polygon points="42.6667,188.2576 48.0,185.1784 48.0,191.3368" /><polygon points="53.3333,194.416 58.6667,191.3368 58.6667,197.4952" /><polygon points="64.0,206.7328 74.6667,200.5744 74.6667,212.8912" /><polygon points="64.0,212.8912 69.3333,209.812 69.3333,215.9704" /><polygon points="64.0,200.5744 69.3333,197.4952 69.3333,203.6536" /><polygon points="74.6667,206.7328 80.0,203.6536 80.0,209.812" /><polygon points="14.2222,239.5776 21.3333,235.472 21.3333,243.6832" /><polygon points="14.2222,243.6832 17.7778,241.6304 17.7778,245.736" /><polygon points="14.2222,235.472 17.7778,233.4192 17.7778,237.5248" /><polygon points="21.3333,239.5776 24.8889,237.5248 24.8889,241.6304" /><polygon points="35.5556,210.8384 35.5556,202.6272 42.6667,206.7328" /><polygon points="39.1111,212.8912 39.1111,208.7856 42.6667,210.8384" /><polygon points="32.0,208.7856 32.0,204.68 35.5556,206.7328" /><polygon points="39.1111,204.68 39.1111,200.5744 42.6667,202.6272" /><polygon points="64.0,186.2048 71.1111,190.3104 64.0,194.416" /><polygon points="60.4444,188.2576 64.0,190.3104 60.4444,192.3632" /><polygon points="67.5556,184.152 71.1111,186.2048 67.5556,188.2576" /><polygon points="67.5556,192.3632 71.1111,194.416 67.5556,196.4688" /><polygon points="99.5556,190.3104 106.6667,186.2048 106.6667,194.416" /><polygon points="99.5556,194.416 103.1111,192.3632 103.1111,196.4688" /><polygon points="99.5556,186.2048 103.1111,184.152 103.1111,188.2576" /><polygon points="106.6667,190.3104 110.2222,188.2576 110.2222,192.3632" /><polygon points="106.6667,120.5151 106.6667,95.8815 128.0,108.1983" /><polygon points="117.3333,126.6735 117.3333,114.3567 128.0,120.5151" /><polygon points="122.6667,129.7527 122.6667,123.5943 128.0,126.6735" /><polygon points="112.0,123.5943 112.0,117.4359 117.3333,120.5151" /><polygon points="122.6667,117.4359 122.6667,111.2775 128.0,114.3567" /><polygon points="96.0,114.3567 96.0,102.0399 106.6667,108.1983" /><polygon points="101.3333,117.4359 101.3333,111.2775 106.6667,114.3567" /><polygon points="90.6667,111.2775 90.6667,105.1191 96.0,108.1983" /><polygon points="101.3333,105.1191 101.3333,98.9607 106.6667,102.0399" /><polygon points="117.3333,102.0399 117.3333,89.7231 128.0,95.8815" /><polygon points="122.6667,105.1191 122.6667,98.9607 128.0,102.0399" /><polygon points="112.0,98.9607 112.0,92.8023 117.3333,95.8815" /><polygon points="122.6667,92.8023 122.6667,86.6439 128.0,89.7231" /><polygon points="120.8889,161.5712 120.8889,153.36 128.0,157.4656" /><polygon points="124.4444,163.624 124.4444,159.5184 128.0,161.5712" /><polygon points="117.3333,159.5184 117.3333,155.4128 120.8889,157.4656" /><polygon points="124.4444,155.4128 124.4444,151.3072 128.0,153.36" /><polygon points="106.6667,128.7263 99.5556,124.6207 106.6667,120.5151" /><polygon points="110.2222,126.6735 106.6667,124.6207 110.2222,122.5679" /><polygon points="103.1111,130.7791 99.5556,128.7263 103.1111,126.6735" /><polygon points="103.1111,122.5679 99.5556,120.5151 103.1111,118.4623" /><polygon points="99.5556,91.7759 106.6667,87.6703 106.6667,95.8815" /><polygon points="99.5556,95.8815 103.1111,93.8287 103.1111,97.9343" /><polygon points="99.5556,87.6703 103.1111,85.6175 103.1111,89.7231" /><polygon points="106.6667,91.7759 110.2222,89.7231 110.2222,93.8287" /><polygon points="120.8889,63.0367 120.8889,54.8255 128.0,58.9311" /><polygon points="124.4444,65.0895 124.4444,60.9839 128.0,63.0367" /><polygon points="117.3333,60.9839 117.3333,56.8783 120.8889,58.9311" /><polygon points="124.4444,56.8783 124.4444,52.7727 128.0,54.8255" /><polygon points="320.0,71.2479 384.0,108.1983 320.0,145.1487" /><polygon points="288.0,89.7231 320.0,108.1983 288.0,126.6735" /><polygon points="272.0,98.9607 288.0,108.1983 272.0,117.4359" /><polygon points="264.0,103.5795 272.0,108.1983 264.0,112.8171" /><polygon points="260.0,105.8889 264.0,108.1983 260.0,110.5077" /><polygon points="268.0,101.2701 272.0,103.5795 268.0,105.8889" /><polygon points="268.0,110.5077 272.0,112.8171 268.0,115.1265" /><polygon points="280.0,94.3419 288.0,98.9607 280.0,103.5795" /><polygon points="276.0,96.6513 280.0,98.9607 276.0,101.2701" /><polygon points="284.0,92.0325 288.0,94.3419 284.0,96.6513" /><polygon points="284.0,101.2701 288.0,103.5795 284.0,105.8889" /><polygon points="280.0,112.8171 288.0,117.4359 280.0,122.0547" /><polygon points="276.0,115.1265 280.0,117.4359 276.0,119.7453" /><polygon points="284.0,110.5077 288.0,112.8171 284.0,115.1265" /><polygon points="284.0,119.7453 288.0,122.0547 284.0,124.3641" /><polygon points="304.0,80.4855 320.0,89.7231 304.0,98.9607" /><polygon points="296.0,85.1043 304.0,89.7231 296.0,94.3419" /><polygon points="292.0,87.4137 296.0,89.7231 292.0,92.0325" /><polygon points="300.0,82.7949 304.0,85.1043 300.0,87.4137" /><polygon points="300.0,92.0325 304.0,94.3419 300.0,96.6513" /><polygon points="312.0,75.8667 320.0,80.4855 312.0,85.1043" /><polygon points="308.0,78.1761 312.0,80.4855 308.0,82.7949" /><polygon points="316.0,73.5573 320.0,75.8667 316.0,78.1761" /><polygon points="316.0,82.7949 320.0,85.1043 316.0,87.4137" /><polygon points="312.0,94.3419 320.0,98.9607 312.0,103.5795" /><polygon points="308.0,96.6513 312.0,98.9607 308.0,101.2701" /><polygon points="316.0,92.0325 320.0,94.3419 316.0,96.6513" /><polygon points="316.0,101.2701 320.0,103.5795 316.0,105.8889" /><polygon points="304.0,117.4359 320.0,126.6735 304.0,135.9111" /><polygon points="296.0,122.0547 304.0,126.6735 296.0,131.2923" /><polygon points="292.0,124.3641 296.0,126.6735 292.0,128.9829" /><polygon points="300.0,119.7453 304.0,122.0547 300.0,124.3641" /><polygon points="300.0,128.9829 304.0,131.2923 300.0,133.6017" /><polygon points="312.0,112.8171 320.0,117.4359 312.0,122.0547" /><polygon points="308.0,115.1265 312.0,117.4359 308.0,119.7453" /><polygon points="316.0,110.5077 320.0,112.8171 316.0,115.1265" /><polygon points="316.0,119.7453 320.0,122.0547 316.0,124.3641" /><polygon points="312.0,131.2923 320.0,135.9111 312.0,140.5299" /><polygon points="308.0,133.6017 312.0,135.9111 308.0,138.2205" /><polygon points="316.0,128.9829 320.0,131.2923 316.0,133.6017" /><polygon points="316.0,138.2205 320.0,140.5299 316.0,142.8393" /><polygon points="352.0,52.7727 384.0,71.2479 352.0,89.7231" /><polygon points="336.0,62.0103 352.0,71.2479 336.0,80.4855" /><polygon points="328.0,66.6291 336.0,71.2479 328.0,75.8667" /><polygon points="324.0,68.9385 328.0,71.2479 324.0,73.5573" /><polygon points="332.0,64.3197 336.0,66.6291 332.0,68.9385" /><polygon points="332.0,73.5573 336.0,75.8667 332.0,78.1761" /><polygon points="344.0,57.3915 352.0,62.0103 344.0,66.6291" /><polygon points="340.0,59.7009 344.0,62.0103 340.0,64.3197" /><polygon points="348.0,55.0821 352.0,57.3915 348.0,59.7009" /><polygon points="348.0,64.3197 352.0,66.6291 348.0,68.9385" /><polygon points="344.0,75.8667 352.0,80.4855 344.0,85.1043" /><polygon points="340.0,78.1761 344.0,80.4855 340.0,82.7949" /><polygon points="348.0,73.5573 352.0,75.8667 348.0,78.1761" /><polygon points="348.0,82.7949 352.0,85.1043 348.0,87.4137" /><polygon points="368.0,43.5351 384.0,52.7727 368.0,62.0103" /><polygon points="360.0,48.1539 368.0,52.7727 360.0,57.3915" /><polygon points="356.0,50.4633 360.0,52.7727 356.0,55.0821" /><polygon points="364.0,45.8445 368.0,48.1539 364.0,50.4633" /><polygon points="364.0,55.0821 368.0,57.3915 364.0,59.7009" /><polygon points="376.0,38.9163 384.0,43.5351 376.0,48.1539" /><polygon points="372.0,41.2257 376.0,43.5351 372.0,45.8445" /><polygon points="380.0,36.6069 384.0,38.9163 380.0,41.2257" /><polygon points="380.0,45.8445 384.0,48.1539 380.0,50.4633" /><polygon points="376.0,57.3915 384.0,62.0103 376.0,66.6291" /><polygon points="372.0,59.7009 376.0,62.0103 372.0,64.3197" /><polygon points="380.0,55.0821 384.0,57.3915 380.0,59.7009" /><polygon points="380.0,64.3197 384.0,66.6291 380.0,68.9385" /><polygon points="368.0,80.4855 384.0,89.7231 368.0,98.9607" /><polygon points="360.0,85.1043 368.0,89.7231 360.0,94.3419" /><polygon points="356.0,87.4137 360.0,89.7231 356.0,92.0325" /><polygon points="364.0,82.7949 368.0,85.1043 364.0,87.4137" /><polygon points="364.0,92.0325 368.0,94.3419 364.0,96.6513" /><polygon points="376.0,75.8667 384.0,80.4855 376.0,85.1043" /><polygon points="372.0,78.1761 376.0,80.4855 372.0,82.7949" /><polygon points="380.0,73.5573 384.0,75.8667 380.0,78.1761" /><polygon points="380.0,82.7949 384.0,85.1043 380.0,87.4137" /><polygon points="376.0,94.3419 384.0,98.9607 376.0,103.5795" /><polygon points="372.0,96.6513 376.0,98.9607 372.0,101.2701" /><polygon points="380.0,92.0325 384.0,94.3419 380.0,96.6513" /><polygon points="380.0,101.2701 384.0,103.5795 380.0,105.8889" /><polygon points="352.0,126.6735 384.0,145.1487 352.0,163.624" /><polygon points="336.0,135.9111 352.0,145.1487 336.0,154.3864" /><polygon points="328.0,140.5299 336.0,145.1487 328.0,149.7676" /><polygon points="324.0,142.8393 328.0,145.1487 324.0,147.4581" /><polygon points="332.0,138.2205 336.0,140.5299 332.0,142.8393" /><polygon points="332.0,147.4581 336.0,149.7676 332.0,152.077" /><polygon points="344.0,131.2923 352.0,135.9111 344.0,140.5299" /><polygon points="340.0,133.6017 344.0,135.9111 340.0,138.2205" /><polygon points="348.0,128.9829 352.0,131.2923 348.0,133.6017" /><polygon points="348.0,138.2205 352.0,140.5299 348.0,142.8393" /><polygon points="344.0,149.7676 352.0,154.3864 344.0,159.0052" /><polygon points="340.0,152.077 344.0,154.3864 340.0,156.6958" /><polygon points="348.0,147.4581 352.0,149.7676 348.0,152.077" /><polygon points="348.0,156.6958 352.0,159.0052 348.0,161.3146" /><polygon points="368.0,117.4359 384.0,126.6735 368.0,135.9111" /><polygon points="360.0,122.0547 368.0,126.6735 360.0,131.2923" /><polygon points="356.0,124.3641 360.0,126.6735 356.0,128.9829" /><polygon points="364.0,119.7453 368.0,122.0547 364.0,124.3641" /><polygon points="364.0,128.9829 368.0,131.2923 364.0,133.6017" /><polygon points="376.0,112.8171 384.0,117.4359 376.0,122.0547" /><polygon points="372.0,115.1265 376.0,117.4359 372.0,119.7453" /><polygon points="380.0,110.5077 384.0,112.8171 380.0,115.1265" /><polygon points="380.0,119.7453 384.0,122.0547 380.0,124.3641" /><polygon points="376.0,131.2923 384.0,135.9111 376.0,140.5299" /><polygon points="372.0,133.6017 376.0,135.9111 372.0,138.2205" /><polygon points="380.0,128.9829 384.0,131.2923 380.0,133.6017" /><polygon points="380.0,138.2205 384.0,140.5299 380.0,142.8393" /><polygon points="368.0,154.3864 384.0,163.624 368.0,172.8616" /><polygon points="360.0,159.0052 368.0,163.624 360.0,168.2428" /><polygon points="356.0,161.3146 360.0,163.624 356.0,165.9334" /><polygon points="364.0,156.6958 368.0,159.0052 364.0,161.3146" /><polygon points="364.0,165.9334 368.0,168.2428 364.0,170.5522" /><polygon points="376.0,149.7676 384.0,154.3864 376.0,159.0052" /><polygon points="372.0,152.077 376.0,154.3864 372.0,156.6958" /><polygon points="380.0,147.4581 384.0,149.7676 380.0,152.077" /><polygon points="380.0,156.6958 384.0,159.0052 380.0,161.3146" /><polygon points="376.0,168.2428 384.0,172.8616 376.0,177.4804" /><polygon points="372.0,170.5522 376.0,172.8616 372.0,175.171" /><polygon points="380.0,165.9334 384.0,168.2428 380.0,170.5522" /><polygon points="380.0,175.171 384.0,177.4804 380.0,179.7898" /><polygon points="192.0,46.6143 213.3333,58.9311 192.0,71.2479" /><polygon points="181.3333,52.7727 192.0,58.9311 181.3333,65.0895" /><polygon points="176.0,55.8519 181.3333,58.9311 176.0,62.0103" /><polygon points="186.6667,49.6935 192.0,52.7727 186.6667,55.8519" /><polygon points="186.6667,62.0103 192.0,65.0895 186.6667,68.1687" /><polygon points="202.6667,40.4559 213.3333,46.6143 202.6667,52.7727" /><polygon points="197.3333,43.5351 202.6667,46.6143 197.3333,49.6935" /><polygon points="208.0,37.3767 213.3333,40.4559 208.0,43.5351" /><polygon points="208.0,49.6935 213.3333,52.7727 208.0,55.8519" /><polygon points="202.6667,65.0895 213.3333,71.2479 202.6667,77.4063" /><polygon points="197.3333,68.1687 202.6667,71.2479 197.3333,74.3271" /><polygon points="208.0,62.0103 213.3333,65.0895 208.0,68.1687" /><polygon points="208.0,74.3271 213.3333,77.4063 208.0,80.4855" /><polygon points="149.3333,38.4031 156.4444,42.5087 149.3333,46.6143" /><polygon points="145.7778,40.4559 149.3333,42.5087 145.7778,44.5615" /><polygon points="152.8889,36.3503 156.4444,38.4031 152.8889,40.4559" /><polygon points="152.8889,44.5615 156.4444,46.6143 152.8889,48.6671" /><polygon points="184.8889,42.5087 192.0,38.4031 192.0,46.6143" /><polygon points="184.8889,46.6143 188.4444,44.5615 188.4444,48.6671" /><polygon points="184.8889,38.4031 188.4444,36.3503 188.4444,40.4559" /><polygon points="192.0,42.5087 195.5556,40.4559 195.5556,44.5615" /><polygon points="220.4444,54.8255 220.4444,63.0367 213.3333,58.9311" /><polygon points="216.8889,52.7727 216.8889,56.8783 213.3333,54.8255" /><polygon points="224.0,56.8783 224.0,60.9839 220.4444,58.9311" /><polygon points="216.8889,60.9839 216.8889,65.0895 213.3333,63.0367" /><polygon points="234.6667,87.6703 241.7778,91.7759 234.6667,95.8815" /><polygon points="231.1111,89.7231 234.6667,91.7759 231.1111,93.8287" /><polygon points="238.2222,85.6175 241.7778,87.6703 238.2222,89.7231" /><polygon points="238.2222,93.8287 241.7778,95.8815 238.2222,97.9343" /><polygon points="298.6667,58.9311 320.0,46.6143 320.0,71.2479" /><polygon points="298.6667,71.2479 309.3333,65.0895 309.3333,77.4063" /><polygon points="298.6667,77.4063 304.0,74.3271 304.0,80.4855" /><polygon points="298.6667,65.0895 304.0,62.0103 304.0,68.1687" /><polygon points="309.3333,71.2479 314.6667,68.1687 314.6667,74.3271" /><polygon points="298.6667,46.6143 309.3333,40.4559 309.3333,52.7727" /><polygon points="298.6667,52.7727 304.0,49.6935 304.0,55.8519" /><polygon points="298.6667,40.4559 304.0,37.3767 304.0,43.5351" /><polygon points="309.3333,46.6143 314.6667,43.5351 314.6667,49.6935" /><polygon points="320.0,58.9311 330.6667,52.7727 330.6667,65.0895" /><polygon points="320.0,65.0895 325.3333,62.0103 325.3333,68.1687" /><polygon points="320.0,52.7727 325.3333,49.6935 325.3333,55.8519" /><polygon points="330.6667,58.9311 336.0,55.8519 336.0,62.0103" /><polygon points="270.2222,91.7759 277.3333,87.6703 277.3333,95.8815" /><polygon points="270.2222,95.8815 273.7778,93.8287 273.7778,97.9343" /><polygon points="270.2222,87.6703 273.7778,85.6175 273.7778,89.7231" /><polygon points="277.3333,91.7759 280.8889,89.7231 280.8889,93.8287" /><polygon points="291.5556,63.0367 291.5556,54.8255 298.6667,58.9311" /><polygon points="295.1111,65.0895 295.1111,60.9839 298.6667,63.0367" /><polygon points="288.0,60.9839 288.0,56.8783 291.5556,58.9311" /><polygon points="295.1111,56.8783 295.1111,52.7727 298.6667,54.8255" /><polygon points="320.0,38.4031 327.1111,42.5087 320.0,46.6143" /><polygon points="316.4444,40.4559 320.0,42.5087 316.4444,44.5615" /><polygon points="323.5556,36.3503 327.1111,38.4031 323.5556,40.4559" /><polygon points="323.5556,44.5615 327.1111,46.6143 323.5556,48.6671" /><polygon points="355.5556,42.5087 362.6667,38.4031 362.6667,46.6143" /><polygon points="355.5556,46.6143 359.1111,44.5615 359.1111,48.6671" /><polygon points="355.5556,38.4031 359.1111,36.3503 359.1111,40.4559" /><polygon points="362.6667,42.5087 366.2222,40.4559 366.2222,44.5615" /><polygon points="405.3333,95.8815 405.3333,120.5151 384.0,108.1983" /><polygon points="394.6667,89.7231 394.6667,102.0399 384.0,95.8815" /><polygon points="389.3333,86.6439 389.3333,92.8023 384.0,89.7231" /><polygon points="400.0,92.8023 400.0,98.9607 394.6667,95.8815" /><polygon points="389.3333,98.9607 389.3333,105.1191 384.0,102.0399" /><polygon points="416.0,102.0399 416.0,114.3567 405.3333,108.1983" /><polygon points="410.6667,98.9607 410.6667,105.1191 405.3333,102.0399" /><polygon points="421.3333,105.1191 421.3333,111.2775 416.0,108.1983" /><polygon points="410.6667,111.2775 410.6667,117.4359 405.3333,114.3567" /><polygon points="394.6667,114.3567 394.6667,126.6735 384.0,120.5151" /><polygon points="389.3333,111.2775 389.3333,117.4359 384.0,114.3567" /><polygon points="400.0,117.4359 400.0,123.5943 394.6667,120.5151" /><polygon points="389.3333,123.5943 389.3333,129.7527 384.0,126.6735" /><polygon points="391.1111,54.8255 391.1111,63.0367 384.0,58.9311" /><polygon points="387.5556,52.7727 387.5556,56.8783 384.0,54.8255" /><polygon points="394.6667,56.8783 394.6667,60.9839 391.1111,58.9311" /><polygon points="387.5556,60.9839 387.5556,65.0895 384.0,63.0367" /><polygon points="405.3333,87.6703 412.4444,91.7759 405.3333,95.8815" /><polygon points="401.7778,89.7231 405.3333,91.7759 401.7778,93.8287" /><polygon points="408.8889,85.6175 412.4444,87.6703 408.8889,89.7231" /><polygon points="408.8889,93.8287 412.4444,95.8815 408.8889,97.9343" /><polygon points="412.4444,124.6207 405.3333,128.7263 405.3333,120.5151" /><polygon points="412.4444,120.5151 408.8889,122.5679 408.8889,118.4623" /><polygon points="412.4444,128.7263 408.8889,130.7791 408.8889,126.6735" /><polygon points="405.3333,124.6207 401.7778,126.6735 401.7778,122.5679" /><polygon points="391.1111,153.36 391.1111,161.5712 384.0,157.4656" /><polygon points="387.5556,151.3072 387.5556,155.4128 384.0,153.36" /><polygon points="394.6667,155.4128 394.6667,159.5184 391.1111,157.4656" /><polygon points="387.5556,159.5184 387.5556,163.624 384.0,161.5712" /><polygon points="448.0,194.416 469.3333,206.7328 448.0,219.0496" /><polygon points="437.3333,200.5744 448.0,206.7328 437.3333,212.8912" /><polygon points="432.0,203.6536 437.3333,206.7328 432.0,209.812" /><polygon points="442.6667,197.4952 448.0,200.5744 442.6667,203.6536" /><polygon points="442.6667,209.812 448.0,212.8912 442.6667,215.9704" /><polygon points="458.6667,188.2576 469.3333,194.416 458.6667,200.5744" /><polygon points="453.3333,191.3368 458.6667,194.416 453.3333,197.4952" /><polygon points="464.0,185.1784 469.3333,188.2576 464.0,191.3368" /><polygon points="464.0,197.4952 469.3333,200.5744 464.0,203.6536" /><polygon points="458.6667,212.8912 469.3333,219.0496 458.6667,225.208" /><polygon points="453.3333,215.9704 458.6667,219.0496 453.3333,222.1288" /><polygon points="464.0,209.812 469.3333,212.8912 464.0,215.9704" /><polygon points="464.0,222.1288 469.3333,225.208 464.0,228.2872" /><polygon points="405.3333,186.2048 412.4444,190.3104 405.3333,194.416" /><polygon points="401.7778,188.2576 405.3333,190.3104 401.7778,192.3632" /><polygon points="408.8889,184.152 412.4444,186.2048 408.8889,188.2576" /><polygon points="408.8889,192.3632 412.4444,194.416 408.8889,196.4688" /><polygon points="440.8889,190.3104 448.0,186.2048 448.0,194.416" /><polygon points="440.8889,194.416 444.4444,192.3632 444.4444,196.4688" /><polygon points="440.8889,186.2048 444.4444,184.152 444.4444,188.2576" /><polygon points="448.0,190.3104 451.5556,188.2576 451.5556,192.3632" /><polygon points="476.4444,202.6272 476.4444,210.8384 469.3333,206.7328" /><polygon points="472.8889,200.5744 472.8889,204.68 469.3333,202.6272" /><polygon points="480.0,204.68 480.0,208.7856 476.4444,206.7328" /><polygon points="472.8889,208.7856 472.8889,212.8912 469.3333,210.8384" /><polygon points="490.6667,235.472 497.7778,239.5776 490.6667,243.6832" /><polygon points="487.1111,237.5248 490.6667,239.5776 487.1111,241.6304" /><polygon points="494.2222,233.4192 497.7778,235.472 494.2222,237.5248" /><polygon points="494.2222,241.6304 497.7778,243.6832 494.2222,245.736" /><polygon points="320.0,145.1487 320.0,366.8513 128.0,256.0" /><polygon points="224.0,89.7231 224.0,200.5744 128.0,145.1487" /><polygon points="176.0,62.0103 176.0,117.4359 128.0,89.7231" /><polygon points="152.0,48.1539 152.0,75.8667 128.0,62.0103" /><polygon points="140.0,41.2257 140.0,55.0821 128.0,48.1539" /><polygon points="134.0,37.7616 134.0,44.6898 128.0,41.2257" /><polygon points="146.0,44.6898 146.0,51.618 140.0,48.1539" /><polygon points="134.0,51.618 134.0,58.5462 128.0,55.0821" /><polygon points="164.0,55.0821 164.0,68.9385 152.0,62.0103" /><polygon points="158.0,51.618 158.0,58.5462 152.0,55.0821" /><polygon points="170.0,58.5462 170.0,65.4744 164.0,62.0103" /><polygon points="158.0,65.4744 158.0,72.4026 152.0,68.9385" /><polygon points="140.0,68.9385 140.0,82.7949 128.0,75.8667" /><polygon points="134.0,65.4744 134.0,72.4026 128.0,68.9385" /><polygon points="146.0,72.4026 146.0,79.3308 140.0,75.8667" /><polygon points="134.0,79.3308 134.0,86.259 128.0,82.7949" /><polygon points="200.0,75.8667 200.0,103.5795 176.0,89.7231" /><polygon points="188.0,68.9385 188.0,82.7949 176.0,75.8667" /><polygon points="182.0,65.4744 182.0,72.4026 176.0,68.9385" /><polygon points="194.0,72.4026 194.0,79.3308 188.0,75.8667" /><polygon points="182.0,79.3308 182.0,86.259 176.0,82.7949" /><polygon points="212.0,82.7949 212.0,96.6513 200.0,89.7231" /><polygon points="206.0,79.3308 206.0,86.259 200.0,82.7949" /><polygon points="218.0,86.259 218.0,93.1872 212.0,89.7231" /><polygon points="206.0,93.1872 206.0,100.1154 200.0,96.6513" /><polygon points="188.0,96.6513 188.0,110.5077 176.0,103.5795" /><polygon points="182.0,93.1872 182.0,100.1154 176.0,96.6513" /><polygon points="194.0,100.1154 194.0,107.0436 188.0,103.5795" /><polygon points="182.0,107.0436 182.0,113.9718 176.0,110.5077" /><polygon points="152.0,103.5795 152.0,131.2923 128.0,117.4359" /><polygon points="140.0,96.6513 140.0,110.5077 128.0,103.5795" /><polygon points="134.0,93.1872 134.0,100.1154 128.0,96.6513" /><polygon points="146.0,100.1154 146.0,107.0436 140.0,103.5795" /><polygon points="134.0,107.0436 134.0,113.9718 128.0,110.5077" /><polygon points="164.0,110.5077 164.0,124.3641 152.0,117.4359" /><polygon points="158.0,107.0436 158.0,113.9718 152.0,110.5077" /><polygon points="170.0,113.9718 170.0,120.9 164.0,117.4359" /><polygon points="158.0,120.9 158.0,127.8282 152.0,124.3641" /><polygon points="140.0,124.3641 140.0,138.2205 128.0,131.2923" /><polygon points="134.0,120.9 134.0,127.8282 128.0,124.3641" /><polygon points="146.0,127.8282 146.0,134.7564 140.0,131.2923" /><polygon points="134.0,134.7564 134.0,141.6846 128.0,138.2205" /><polygon points="272.0,117.4359 272.0,172.8616 224.0,145.1487" /><polygon points="248.0,103.5795 248.0,131.2923 224.0,117.4359" /><polygon points="236.0,96.6513 236.0,110.5077 224.0,103.5795" /><polygon points="230.0,93.1872 230.0,100.1154 224.0,96.6513" /><polygon points="242.0,100.1154 242.0,107.0436 236.0,103.5795" /><polygon points="230.0,107.0436 230.0,113.9718 224.0,110.5077" /><polygon points="260.0,110.5077 260.0,124.3641 248.0,117.4359" /><polygon points="254.0,107.0436 254.0,113.9718 248.0,110.5077" /><polygon points="266.0,113.9718 266.0,120.9 260.0,117.4359" /><polygon points="254.0,120.9 254.0,127.8282 248.0,124.3641" /><polygon points="236.0,124.3641 236.0,138.2205 224.0,131.2923" /><polygon points="230.0,120.9 230.0,127.8282 224.0,124.3641" /><polygon points="242.0,127.8282 242.0,134.7564 236.0,131.2923" /><polygon points="230.0,134.7564 230.0,141.6846 224.0,138.2205" /><polygon points="296.0,131.2923 296.0,159.0052 272.0,145.1487" /><polygon points="284.0,124.3641 284.0,138.2205 272.0,131.2923" /><polygon points="278.0,120.9 278.0,127.8282 272.0,124.3641" /><polygon points="290.0,127.8282 290.0,134.7564 284.0,131.2923" /><polygon points="278.0,134.7564 278.0,141.6846 272.0,138.2205" /><polygon points="308.0,138.2205 308.0,152.077 296.0,145.1487" /><polygon points="302.0,134.7564 302.0,141.6846 296.0,138.2205" /><polygon points="314.0,141.6846 314.0,148.6128 308.0,145.1487" /><polygon points="302.0,148.6128 302.0,155.5411 296.0,152.077" /><polygon points="284.0,152.077 284.0,165.9334 272.0,159.0052" /><polygon points="278.0,148.6128 278.0,155.5411 272.0,152.077" /><polygon points="290.0,155.5411 290.0,162.4693 284.0,159.0052" /><polygon points="278.0,162.4693 278.0,169.3975 272.0,165.9334" /><polygon points="248.0,159.0052 248.0,186.718 224.0,172.8616" /><polygon points="236.0,152.077 236.0,165.9334 224.0,159.0052" /><polygon points="230.0,148.6128 230.0,155.5411 224.0,152.077" /><polygon points="242.0,155.5411 242.0,162.4693 236.0,159.0052" /><polygon points="230.0,162.4693 230.0,169.3975 224.0,165.9334" /><polygon points="260.0,165.9334 260.0,179.7898 248.0,172.8616" /><polygon points="254.0,162.4693 254.0,169.3975 248.0,165.9334" /><polygon points="266.0,169.3975 266.0,176.3257 260.0,172.8616" /><polygon points="254.0,176.3257 254.0,183.2539 248.0,179.7898" /><polygon points="236.0,179.7898 236.0,193.6462 224.0,186.718" /><polygon points="230.0,176.3257 230.0,183.2539 224.0,179.7898" /><polygon points="242.0,183.2539 242.0,190.1821 236.0,186.718" /><polygon points="230.0,190.1821 230.0,197.1103 224.0,193.6462" /><polygon points="176.0,172.8616 176.0,228.2872 128.0,200.5744" /><polygon points="152.0,159.0052 152.0,186.718 128.0,172.8616" /><polygon points="140.0,152.077 140.0,165.9334 128.0,159.0052" /><polygon points="134.0,148.6128 134.0,155.5411 128.0,152.077" /><polygon points="146.0,155.5411 146.0,162.4693 140.0,159.0052" /><polygon points="134.0,162.4693 134.0,169.3975 128.0,165.9334" /><polygon points="164.0,165.9334 164.0,179.7898 152.0,172.8616" /><polygon points="158.0,162.4693 158.0,169.3975 152.0,165.9334" /><polygon points="170.0,169.3975 170.0,176.3257 164.0,172.8616" /><polygon points="158.0,176.3257 158.0,183.2539 152.0,179.7898" /><polygon points="140.0,179.7898 140.0,193.6462 128.0,186.718" /><polygon points="134.0,176.3257 134.0,183.2539 128.0,179.7898" /><polygon points="146.0,183.2539 146.0,190.1821 140.0,186.718" /><polygon points="134.0,190.1821 134.0,197.1103 128.0,193.6462" /><polygon points="200.0,186.718 200.0,214.4308 176.0,200.5744" /><polygon points="188.0,179.7898 188.0,193.6462 176.0,186.718" /><polygon points="182.0,176.3257 182.0,183.2539 176.0,179.7898" /><polygon points="194.0,183.2539 194.0,190.1821 188.0,186.718" /><polygon points="182.0,190.1821 182.0,197.1103 176.0,193.6462" /><polygon points="212.0,193.6462 212.0,207.5026 200.0,200.5744" /><polygon points="206.0,190.1821 206.0,197.1103 200.0,193.6462" /><polygon points="218.0,197.1103 218.0,204.0385 212.0,200.5744" /><polygon points="206.0,204.0385 206.0,210.9667 200.0,207.5026" /><polygon points="188.0,207.5026 188.0,221.359 176.0,214.4308" /><polygon points="182.0,204.0385 182.0,210.9667 176.0,207.5026" /><polygon points="194.0,210.9667 194.0,217.8949 188.0,214.4308" /><polygon points="182.0,217.8949 182.0,224.8231 176.0,221.359" /><polygon points="152.0,214.4308 152.0,242.1436 128.0,228.2872" /><polygon points="140.0,207.5026 140.0,221.359 128.0,214.4308" /><polygon points="134.0,204.0385 134.0,210.9667 128.0,207.5026" /><polygon points="146.0,210.9667 146.0,217.8949 140.0,214.4308" /><polygon points="134.0,217.8949 134.0,224.8231 128.0,221.359" /><polygon points="164.0,221.359 164.0,235.2154 152.0,228.2872" /><polygon points="158.0,217.8949 158.0,224.8231 152.0,221.359" /><polygon points="170.0,224.8231 170.0,231.7513 164.0,228.2872" /><polygon points="158.0,231.7513 158.0,238.6795 152.0,235.2154" /><polygon points="140.0,235.2154 140.0,249.0718 128.0,242.1436" /><polygon points="134.0,231.7513 134.0,238.6795 128.0,235.2154" /><polygon points="146.0,238.6795 146.0,245.6077 140.0,242.1436" /><polygon points="134.0,245.6077 134.0,252.5359 128.0,249.0718" /><polygon points="416.0,200.5744 416.0,311.4256 320.0,256.0" /><polygon points="368.0,172.8616 368.0,228.2872 320.0,200.5744" /><polygon points="344.0,159.0052 344.0,186.718 320.0,172.8616" /><polygon points="332.0,152.077 332.0,165.9334 320.0,159.0052" /><polygon points="326.0,148.6128 326.0,155.5411 320.0,152.077" /><polygon points="338.0,155.5411 338.0,162.4693 332.0,159.0052" /><polygon points="326.0,162.4693 326.0,169.3975 320.0,165.9334" /><polygon points="356.0,165.9334 356.0,179.7898 344.0,172.8616" /><polygon points="350.0,162.4693 350.0,169.3975 344.0,165.9334" /><polygon points="362.0,169.3975 362.0,176.3257 356.0,172.8616" /><polygon points="350.0,176.3257 350.0,183.2539 344.0,179.7898" /><polygon points="332.0,179.7898 332.0,193.6462 320.0,186.718" /><polygon points="326.0,176.3257 326.0,183.2539 320.0,179.7898" /><polygon points="338.0,183.2539 338.0,190.1821 332.0,186.718" /><polygon points="326.0,190.1821 326.0,197.1103 320.0,193.6462" /><polygon points="392.0,186.718 392.0,214.4308 368.0,200.5744" /><polygon points="380.0,179.7898 380.0,193.6462 368.0,186.718" /><polygon points="374.0,176.3257 374.0,183.2539 368.0,179.7898" /><polygon points="386.0,183.2539 386.0,190.1821 380.0,186.718" /><polygon points="374.0,190.1821 374.0,197.1103 368.0,193.6462" /><polygon points="404.0,193.6462 404.0,207.5026 392.0,200.5744" /><polygon points="398.0,190.1821 398.0,197.1103 392.0,193.6462" /><polygon points="410.0,197.1103 410.0,204.0385 404.0,200.5744" /><polygon points="398.0,204.0385 398.0,210.9667 392.0,207.5026" /><polygon points="380.0,207.5026 380.0,221.359 368.0,214.4308" /><polygon points="374.0,204.0385 374.0,210.9667 368.0,207.5026" /><polygon points="386.0,210.9667 386.0,217.8949 380.0,214.4308" /><polygon points="374.0,217.8949 374.0,224.8231 368.0,221.359" /><polygon points="344.0,214.4308 344.0,242.1436 320.0,228.2872" /><polygon points="332.0,207.5026 332.0,221.359 320.0,214.4308" /><polygon points="326.0,204.0385 326.0,210.9667 320.0,207.5026" /><polygon points="338.0,210.9667 338.0,217.8949 332.0,214.4308" /><polygon points="326.0,217.8949 326.0,224.8231 320.0,221.359" /><polygon points="356.0,221.359 356.0,235.2154 344.0,228.2872" /><polygon points="350.0,217.8949 350.0,224.8231 344.0,221.359" /><polygon points="362.0,224.8231 362.0,231.7513 356.0,228.2872" /><polygon points="350.0,231.7513 350.0,238.6795 344.0,235.2154" /><polygon points="332.0,235.2154 332.0,249.0718 320.0,242.1436" /><polygon points="326.0,231.7513 326.0,238.6795 320.0,235.2154" /><polygon points="338.0,238.6795 338.0,245.6077 332.0,242.1436" /><polygon points="326.0,245.6077 326.0,252.5359 320.0,249.0718" /><polygon points="464.0,228.2872 464.0,283.7128 416.0,256.0" /><polygon points="440.0,214.4308 440.0,242.1436 416.0,228.2872" /><polygon points="428.0,207.5026 428.0,221.359 416.0,214.4308" /><polygon points="422.0,204.0385 422.0,210.9667 416.0,207.5026" /><polygon points="434.0,210.9667 434.0,217.8949 428.0,214.4308" /><polygon points="422.0,217.8949 422.0,224.8231 416.0,221.359" /><polygon points="452.0,221.359 452.0,235.2154 440.0,228.2872" /><polygon points="446.0,217.8949 446.0,224.8231 440.0,221.359" /><polygon points="458.0,224.8231 458.0,231.7513 452.0,228.2872" /><polygon points="446.0,231.7513 446.0,238.6795 440.0,235.2154" /><polygon points="428.0,235.2154 428.0,249.0718 416.0,242.1436" /><polygon points="422.0,231.7513 422.0,238.6795 416.0,235.2154" /><polygon points="434.0,238.6795 434.0,245.6077 428.0,242.1436" /><polygon points="422.0,245.6077 422.0,252.5359 416.0,249.0718" /><polygon points="488.0,242.1436 488.0,269.8564 464.0,256.0" /><polygon points="476.0,235.2154 476.0,249.0718 464.0,242.1436" /><polygon points="470.0,231.7513 470.0,238.6795 464.0,235.2154" /><polygon points="482.0,238.6795 482.0,245.6077 476.0,242.1436" /><polygon points="470.0,245.6077 470.0,252.5359 464.0,249.0718" /><polygon points="500.0,249.0718 500.0,262.9282 488.0,256.0" /><polygon points="494.0,245.6077 494.0,252.5359 488.0,249.0718" /><polygon points="506.0,252.5359 506.0,259.4641 500.0,256.0" /><polygon points="494.0,259.4641 494.0,266.3923 488.0,262.9282" /><polygon points="476.0,262.9282 476.0,276.7846 464.0,269.8564" /><polygon points="470.0,259.4641 470.0,266.3923 464.0,262.9282" /><polygon points="482.0,266.3923 482.0,273.3205 476.0,269.8564" /><polygon points="470.0,273.3205 470.0,280.2487 464.0,276.7846" /><polygon points="440.0,269.8564 440.0,297.5692 416.0,283.7128" /><polygon points="428.0,262.9282 428.0,276.7846 416.0,269.8564" /><polygon points="422.0,259.4641 422.0,266.3923 416.0,262.9282" /><polygon points="434.0,266.3923 434.0,273.3205 428.0,269.8564" /><polygon points="422.0,273.3205 422.0,280.2487 416.0,276.7846" /><polygon points="452.0,276.7846 452.0,290.641 440.0,283.7128" /><polygon points="446.0,273.3205 446.0,280.2487 440.0,276.7846" /><polygon points="458.0,280.2487 458.0,287.1769 452.0,283.7128" /><polygon points="446.0,287.1769 446.0,294.1051 440.0,290.641" /><polygon points="428.0,290.641 428.0,304.4974 416.0,297.5692" /><polygon points="422.0,287.1769 422.0,294.1051 416.0,290.641" /><polygon points="434.0,294.1051 434.0,301.0333 428.0,297.5692" /><polygon points="422.0,301.0333 422.0,307.9615 416.0,304.4974" /><polygon points="368.0,283.7128 368.0,339.1384 320.0,311.4256" /><polygon points="344.0,269.8564 344.0,297.5692 320.0,283.7128" /><polygon points="332.0,262.9282 332.0,276.7846 320.0,269.8564" /><polygon points="326.0,259.4641 326.0,266.3923 320.0,262.9282" /><polygon points="338.0,266.3923 338.0,273.3205 332.0,269.8564" /><polygon points="326.0,273.3205 326.0,280.2487 320.0,276.7846" /><polygon points="356.0,276.7846 356.0,290.641 344.0,283.7128" /><polygon points="350.0,273.3205 350.0,280.2487 344.0,276.7846" /><polygon points="362.0,280.2487 362.0,287.1769 356.0,283.7128" /><polygon points="350.0,287.1769 350.0,294.1051 344.0,290.641" /><polygon points="332.0,290.641 332.0,304.4974 320.0,297.5692" /><polygon points="326.0,287.1769 326.0,294.1051 320.0,290.641" /><polygon points="338.0,294.1051 338.0,301.0333 332.0,297.5692" /><polygon points="326.0,301.0333 326.0,307.9615 320.0,304.4974" /><polygon points="392.0,297.5692 392.0,325.282 368.0,311.4256" /><polygon points="380.0,290.641 380.0,304.4974 368.0,297.5692" /><polygon points="374.0,287.1769 374.0,294.1051 368.0,290.641" /><polygon points="386.0,294.1051 386.0,301.0333 380.0,297.5692" /><polygon points="374.0,301.0333 374.0,307.9615 368.0,304.4974" /><polygon points="404.0,304.4974 404.0,318.3538 392.0,311.4256" /><polygon points="398.0,301.0333 398.0,307.9615 392.0,304.4974" /><polygon points="410.0,307.9615 410.0,314.8897 404.0,311.4256" /><polygon points="398.0,314.8897 398.0,321.8179 392.0,318.3538" /><polygon points="380.0,318.3538 380.0,332.2102 368.0,325.282" /><polygon points="374.0,314.8897 374.0,321.8179 368.0,318.3538" /><polygon points="386.0,321.8179 386.0,328.7461 380.0,325.282" /><polygon points="374.0,328.7461 374.0,335.6743 368.0,332.2102" /><polygon points="344.0,325.282 344.0,352.9948 320.0,339.1384" /><polygon points="332.0,318.3538 332.0,332.2102 320.0,325.282" /><polygon points="326.0,314.8897 326.0,321.8179 320.0,318.3538" /><polygon points="338.0,321.8179 338.0,328.7461 332.0,325.282" /><polygon points="326.0,328.7461 326.0,335.6743 320.0,332.2102" /><polygon points="356.0,332.2102 356.0,346.0666 344.0,339.1384" /><polygon points="350.0,328.7461 350.0,335.6743 344.0,332.2102" /><polygon points="362.0,335.6743 362.0,342.6025 356.0,339.1384" /><polygon points="350.0,342.6025 350.0,349.5307 344.0,346.0666" /><polygon points="332.0,346.0666 332.0,359.923 320.0,352.9948" /><polygon points="326.0,342.6025 326.0,349.5307 320.0,346.0666" /><polygon points="338.0,349.5307 338.0,356.4589 332.0,352.9948" /><polygon points="326.0,356.4589 326.0,363.3872 320.0,359.923" /><polygon points="224.0,311.4256 224.0,422.2769 128.0,366.8513" /><polygon points="176.0,283.7128 176.0,339.1384 128.0,311.4256" /><polygon points="152.0,269.8564 152.0,297.5692 128.0,283.7128" /><polygon points="140.0,262.9282 140.0,276.7846 128.0,269.8564" /><polygon points="134.0,259.4641 134.0,266.3923 128.0,262.9282" /><polygon points="146.0,266.3923 146.0,273.3205 140.0,269.8564" /><polygon points="134.0,273.3205 134.0,280.2487 128.0,276.7846" /><polygon points="164.0,276.7846 164.0,290.641 152.0,283.7128" /><polygon points="158.0,273.3205 158.0,280.2487 152.0,276.7846" /><polygon points="170.0,280.2487 170.0,287.1769 164.0,283.7128" /><polygon points="158.0,287.1769 158.0,294.1051 152.0,290.641" /><polygon points="140.0,290.641 140.0,304.4974 128.0,297.5692" /><polygon points="134.0,287.1769 134.0,294.1051 128.0,290.641" /><polygon points="146.0,294.1051 146.0,301.0333 140.0,297.5692" /><polygon points="134.0,301.0333 134.0,307.9615 128.0,304.4974" /><polygon points="200.0,297.5692 200.0,325.282 176.0,311.4256" /><polygon points="188.0,290.641 188.0,304.4974 176.0,297.5692" /><polygon points="182.0,287.1769 182.0,294.1051 176.0,290.641" /><polygon points="194.0,294.1051 194.0,301.0333 188.0,297.5692" /><polygon points="182.0,301.0333 182.0,307.9615 176.0,304.4974" /><polygon points="212.0,304.4974 212.0,318.3538 200.0,311.4256" /><polygon points="206.0,301.0333 206.0,307.9615 200.0,304.4974" /><polygon points="218.0,307.9615 218.0,314.8897 212.0,311.4256" /><polygon points="206.0,314.8897 206.0,321.8179 200.0,318.3538" /><polygon points="188.0,318.3538 188.0,332.2102 176.0,325.282" /><polygon points="182.0,314.8897 182.0,321.8179 176.0,318.3538" /><polygon points="194.0,321.8179 194.0,328.7461 188.0,325.282" /><polygon points="182.0,328.7461 182.0,335.6743 176.0,332.2102" /><polygon points="152.0,325.282 152.0,352.9948 128.0,339.1384" /><polygon points="140.0,318.3538 140.0,332.2102 128.0,325.282" /><polygon points="134.0,314.8897 134.0,321.8179 128.0,318.3538" /><polygon points="146.0,321.8179 146.0,328.7461 140.0,325.282" /><polygon points="134.0,328.7461 134.0,335.6743 128.0,332.2102" /><polygon points="164.0,332.2102 164.0,346.0666 152.0,339.1384" /><polygon points="158.0,328.7461 158.0,335.6743 152.0,332.2102" /><polygon points="170.0,335.6743 170.0,342.6025 164.0,339.1384" /><polygon points="158.0,342.6025 158.0,349.5307 152.0,346.0666" /><polygon points="140.0,346.0666 140.0,359.923 128.0,352.9948" /><polygon points="134.0,342.6025 134.0,349.5307 128.0,346.0666" /><polygon points="146.0,349.5307 146.0,356.4589 140.0,352.9948" /><polygon points="134.0,356.4589 134.0,363.3872 128.0,359.923" /><polygon points="272.0,339.1384 272.0,394.5641 224.0,366.8513" /><polygon points="248.0,325.282 248.0,352.9948 224.0,339.1384" /><polygon points="236.0,318.3538 236.0,332.2102 224.0,325.282" /><polygon points="230.0,314.8897 230.0,321.8179 224.0,318.3538" /><polygon points="242.0,321.8179 242.0,328.7461 236.0,325.282" /><polygon points="230.0,328.7461 230.0,335.6743 224.0,332.2102" /><polygon points="260.0,332.2102 260.0,346.0666 248.0,339.1384" /><polygon points="254.0,328.7461 254.0,335.6743 248.0,332.2102" /><polygon points="266.0,335.6743 266.0,342.6025 260.0,339.1384" /><polygon points="254.0,342.6025 254.0,349.5307 248.0,346.0666" /><polygon points="236.0,346.0666 236.0,359.923 224.0,352.9948" /><polygon points="230.0,342.6025 230.0,349.5307 224.0,346.0666" /><polygon points="242.0,349.5307 242.0,356.4589 236.0,352.9948" /><polygon points="230.0,356.4589 230.0,363.3872 224.0,359.923" /><polygon points="296.0,352.9948 296.0,380.7077 272.0,366.8513" /><polygon points="284.0,346.0666 284.0,359.923 272.0,352.9948" /><polygon points="278.0,342.6025 278.0,349.5307 272.0,346.0666" /><polygon points="290.0,349.5307 290.0,356.4589 284.0,352.9948" /><polygon points="278.0,356.4589 278.0,363.3872 272.0,359.923" /><polygon points="308.0,359.923 308.0,373.7795 296.0,366.8513" /><polygon points="302.0,356.4589 302.0,363.3872 296.0,359.923" /><polygon points="314.0,363.3872 314.0,370.3154 308.0,366.8513" /><polygon points="302.0,370.3154 302.0,377.2436 296.0,373.7795" /><polygon points="284.0,373.7795 284.0,387.6359 272.0,380.7077" /><polygon points="278.0,370.3154 278.0,377.2436 272.0,373.7795" /><polygon points="290.0,377.2436 290.0,384.1718 284.0,380.7077" /><polygon points="278.0,384.1718 278.0,391.1 272.0,387.6359" /><polygon points="248.0,380.7077 248.0,408.4205 224.0,394.5641" /><polygon points="236.0,373.7795 236.0,387.6359 224.0,380.7077" /><polygon points="230.0,370.3154 230.0,377.2436 224.0,373.7795" /><polygon points="242.0,377.2436 242.0,384.1718 236.0,380.7077" /><polygon points="230.0,384.1718 230.0,391.1 224.0,387.6359" /><polygon points="260.0,387.6359 260.0,401.4923 248.0,394.5641" /><polygon points="254.0,384.1718 254.0,391.1 248.0,387.6359" /><polygon points="266.0,391.1 266.0,398.0282 260.0,394.5641" /><polygon points="254.0,398.0282 254.0,404.9564 248.0,401.4923" /><polygon points="236.0,401.4923 236.0,415.3487 224.0,408.4205" /><polygon points="230.0,398.0282 230.0,404.9564 224.0,401.4923" /><polygon points="242.0,404.9564 242.0,411.8846 236.0,408.4205" /><polygon points="230.0,411.8846 230.0,418.8128 224.0,415.3487" /><polygon points="176.0,394.5641 176.0,449.9897 128.0,422.2769" /><polygon points="152.0,380.7077 152.0,408.4205 128.0,394.5641" /><polygon points="140.0,373.7795 140.0,387.6359 128.0,380.7077" /><polygon points="134.0,370.3154 134.0,377.2436 128.0,373.7795" /><polygon points="146.0,377.2436 146.0,384.1718 140.0,380.7077" /><polygon points="134.0,384.1718 134.0,391.1 128.0,387.6359" /><polygon points="164.0,387.6359 164.0,401.4923 152.0,394.5641" /><polygon points="158.0,384.1718 158.0,391.1 152.0,387.6359" /><polygon points="170.0,391.1 170.0,398.0282 164.0,394.5641" /><polygon points="158.0,398.0282 158.0,404.9564 152.0,401.4923" /><polygon points="140.0,401.4923 140.0,415.3487 128.0,408.4205" /><polygon points="134.0,398.0282 134.0,404.9564 128.0,401.4923" /><polygon points="146.0,404.9564 146.0,411.8846 140.0,408.4205" /><polygon points="134.0,411.8846 134.0,418.8128 128.0,415.3487" /><polygon points="200.0,408.4205 200.0,436.1333 176.0,422.2769" /><polygon points="188.0,401.4923 188.0,415.3487 176.0,408.4205" /><polygon points="182.0,398.0282 182.0,404.9564 176.0,401.4923" /><polygon points="194.0,404.9564 194.0,411.8846 188.0,408.4205" /><polygon points="182.0,411.8846 182.0,418.8128 176.0,415.3487" /><polygon points="212.0,415.3487 212.0,429.2051 200.0,422.2769" /><polygon points="206.0,411.8846 206.0,418.8128 200.0,415.3487" /><polygon points="218.0,418.8128 218.0,425.741 212.0,422.2769" /><polygon points="206.0,425.741 206.0,432.6692 200.0,429.2051" /><polygon points="188.0,429.2051 188.0,443.0615 176.0,436.1333" /><polygon points="182.0,425.741 182.0,432.6692 176.0,429.2051" /><polygon points="194.0,432.6692 194.0,439.5974 188.0,436.1333" /><polygon points="182.0,439.5974 182.0,446.5256 176.0,443.0615" /><polygon points="152.0,436.1333 152.0,463.8461 128.0,449.9897" /><polygon points="140.0,429.2051 140.0,443.0615 128.0,436.1333" /><polygon points="134.0,425.741 134.0,432.6692 128.0,429.2051" /><polygon points="146.0,432.6692 146.0,439.5974 140.0,436.1333" /><polygon points="134.0,439.5974 134.0,446.5256 128.0,443.0615" /><polygon points="164.0,443.0615 164.0,456.9179 152.0,449.9897" /><polygon points="158.0,439.5974 158.0,446.5256 152.0,443.0615" /><polygon points="170.0,446.5256 170.0,453.4538 164.0,449.9897" /><polygon points="158.0,453.4538 158.0,460.382 152.0,456.9179" /><polygon points="140.0,456.9179 140.0,470.7743 128.0,463.8461" /><polygon points="134.0,453.4538 134.0,460.382 128.0,456.9179" /><polygon points="146.0,460.382 146.0,467.3102 140.0,463.8461" /><polygon points="134.0,467.3102 134.0,474.2384 128.0,470.7743" /></g></defs><use xlink:href="#id4" /></svg>