<?xml version="1.0" encoding="UTF-8" standalone="no"?>
<!-- Created with Inkscape (http://www.inkscape.org/) -->

<svg
   xmlns:dc="http://purl.org/dc/elements/1.1/"
   xmlns:cc="http://creativecommons.org/ns#"
   xmlns:rdf="http://www.w3.org/1999/02/22-rdf-syntax-ns#"
   xmlns:svg="http://www.w3.org/2000/svg"
   xmlns="http://www.w3.org/2000/svg"
   xmlns:sodipodi="http://sodipodi.sourceforge.net/DTD/sodipodi-0.dtd"
   xmlns:inkscape="http://www.inkscape.org/namespaces/inkscape"
   width="210mm"
   height="297mm"
   viewBox="0 0 210 297"
   version="1.1"
   id="svg8"
   inkscape:version="0.92.1 r"
   sodipodi:docname="logo.svg">
  <defs
     id="defs2">
    <inkscape:path-effect
       effect="skeletal"
       id="path-effect4519"
       is_visible="true"
       pattern="M 0,5 C 0,2.24 2.24,0 5,0 7.76,0 10,2.24 10,5 10,7.76 7.76,10 5,10 2.24,10 0,7.76 0,5 Z"
       copytype="single_stretched"
       prop_scale="0.26458333"
       scale_y_rel="false"
       spacing="0"
       normal_offset="0"
       tang_offset="0"
       prop_units="false"
       vertical_pattern="false"
       fuse_tolerance="0" />
  </defs>
  <sodipodi:namedview
     id="base"
     pagecolor="#ffffff"
     bordercolor="#666666"
     borderopacity="1.0"
     inkscape:pageopacity="0.0"
     inkscape:pageshadow="2"
     inkscape:zoom="1.8004266"
     inkscape:cx="-1167.0199"
     inkscape:cy="1548.816"
     inkscape:document-units="mm"
     inkscape:current-layer="layer1"
     showgrid="false"
     inkscape:snap-text-baseline="true"
     inkscape:object-paths="false"
     inkscape:object-nodes="false"
     inkscape:window-width="1920"
     inkscape:window-height="1009"
     inkscape:window-x="0"
     inkscape:window-y="0"
     inkscape:window-maximized="1" />
  <metadata
     id="metadata5">
    <rdf:RDF>
      <cc:Work
         rdf:about="">
        <dc:format>image/svg+xml</dc:format>
        <dc:type
           rdf:resource="http://purl.org/dc/dcmitype/StillImage" />
        <dc:title />
      </cc:Work>
    </rdf:RDF>
  </metadata>
  <g
     inkscape:label="Layer 1"
     inkscape:groupmode="layer"
     id="layer1">
    <path
       inkscape:connector-curvature="0"
       id="path4491"
       style="font-style:normal;font-variant:normal;font-weight:normal;font-stretch:normal;font-size:14.11111069px;line-height:125%;font-family:'DejaVu Sans Mono';-inkscape-font-specification:'DejaVu Sans Mono, Normal';font-variant-ligatures:normal;font-variant-caps:normal;font-variant-numeric:normal;font-feature-settings:normal;text-align:start;letter-spacing:0px;word-spacing:0px;writing-mode:lr-tb;text-anchor:start;display:none;fill:#000000;fill-opacity:1;stroke:none;stroke-width:0.26458332px;stroke-linecap:butt;stroke-linejoin:miter;stroke-opacity:1"
       d="m -368.26693,-78.732941 q -0.96462,0 -1.46072,0.75103 -0.49609,0.751031 -0.49609,2.225532 0,1.467611 0.49609,2.225532 0.4961,0.751031 1.46072,0.751031 0.97152,0 1.46761,-0.751031 0.4961,-0.757921 0.4961,-2.225532 0,-1.474501 -0.4961,-2.225532 -0.49609,-0.75103 -1.46761,-0.75103 z m 0,-1.07487 q 1.60542,0 2.45291,1.040419 0.85438,1.040419 0.85438,3.011013 0,1.977485 -0.84749,3.017904 -0.84749,1.033528 -2.4598,1.033528 -1.60541,0 -2.45291,-1.033528 -0.84749,-1.040419 -0.84749,-3.017904 0,-1.970594 0.84749,-3.011013 0.8475,-1.040419 2.45291,-1.040419 z" />
    <g
       id="g4650"
       transform="translate(32.918125)">
      <rect
         y="-106.0759"
         x="-385.60858"
         height="15.140884"
         width="61.996052"
         id="rect4570"
         style="opacity:0.13656389;fill:#999999;fill-opacity:1;fill-rule:evenodd;stroke:none;stroke-width:3.75367212;stroke-linecap:square;stroke-linejoin:round;stroke-miterlimit:4;stroke-dasharray:none;stroke-dashoffset:0;stroke-opacity:1;paint-order:fill markers stroke" />
      <g
         inkscape:export-ydpi="91.649879"
         inkscape:export-xdpi="91.649879"
         id="g4559">
        <path
           inkscape:connector-curvature="0"
           id="path4489"
           style="font-style:normal;font-variant:normal;font-weight:normal;font-stretch:normal;font-size:14.11111069px;line-height:125%;font-family:'DejaVu Sans Mono';-inkscape-font-specification:'DejaVu Sans Mono, Normal';font-variant-ligatures:normal;font-variant-caps:normal;font-variant-numeric:normal;font-feature-settings:normal;text-align:start;letter-spacing:0px;word-spacing:0px;writing-mode:lr-tb;text-anchor:start;fill:#000000;fill-opacity:1;stroke:none;stroke-width:0.26458332px;stroke-linecap:butt;stroke-linejoin:miter;stroke-opacity:1"
           d="m -376.7904,-97.287014 q 0,-1.474501 -0.46854,-2.225532 -0.46853,-0.751034 -1.38493,-0.751034 -0.92328,0 -1.3987,0.757925 -0.47543,0.75103 -0.47543,2.218641 0,1.460721 0.47543,2.218642 0.47542,0.757921 1.3987,0.757921 0.9164,0 1.38493,-0.751031 0.46854,-0.751031 0.46854,-2.225532 z m -3.7276,-2.880096 q 0.30317,-0.565 0.83372,-0.86817 0.53743,-0.30317 1.24023,-0.30317 1.39182,0 2.19108,1.07487 0.79926,1.067983 0.79926,2.949005 0,1.908583 -0.80615,2.997233 -0.79926,1.08176 -2.19797,1.08176 -0.68902,0 -1.21956,-0.296278 -0.52366,-0.303168 -0.84061,-0.875054 v 0.971517 h -1.26779 v -10.721133 h 1.26779 z" />
        <path
           inkscape:connector-curvature="0"
           id="path4493"
           style="font-style:normal;font-variant:normal;font-weight:normal;font-stretch:normal;font-size:14.11111069px;line-height:125%;font-family:'DejaVu Sans Mono';-inkscape-font-specification:'DejaVu Sans Mono, Normal';font-variant-ligatures:normal;font-variant-caps:normal;font-variant-numeric:normal;font-feature-settings:normal;text-align:start;letter-spacing:0px;word-spacing:0px;writing-mode:lr-tb;text-anchor:start;fill:#000000;fill-opacity:1;stroke:none;stroke-width:0.26458332px;stroke-linecap:butt;stroke-linejoin:miter;stroke-opacity:1"
           d="m -357.4995,-101.15241 -2.76296,3.693141 3.03168,4.023872 h -1.46761 l -2.25998,-3.093696 -2.25309,3.093696 h -1.46762 l 3.03169,-4.023872 -2.76297,-3.693141 h 1.4056 l 2.04639,2.790526 2.0326,-2.790526 z" />
        <path
           inkscape:connector-curvature="0"
           id="path4495"
           style="font-style:normal;font-variant:normal;font-weight:normal;font-stretch:normal;font-size:14.11111069px;line-height:125%;font-family:'DejaVu Sans Mono';-inkscape-font-specification:'DejaVu Sans Mono, Normal';font-variant-ligatures:normal;font-variant-caps:normal;font-variant-numeric:normal;font-feature-settings:normal;text-align:start;letter-spacing:0px;word-spacing:0px;writing-mode:lr-tb;text-anchor:start;fill:#000000;fill-opacity:1;stroke:none;stroke-width:0.26458332px;stroke-linecap:butt;stroke-linejoin:miter;stroke-opacity:1"
           d="m -351.22593,-100.88369 v 1.240231 q -0.54432,-0.316949 -1.09554,-0.475421 -0.55122,-0.15848 -1.1231,-0.15848 -0.86128,0 -1.28847,0.282501 -0.4203,0.275608 -0.4203,0.847494 0,0.516764 0.31695,0.771701 0.31695,0.254937 1.57785,0.496094 l 0.50988,0.09646 q 0.94395,0.179145 1.42627,0.71658 0.4892,0.537435 0.4892,1.398709 0,1.143772 -0.81304,1.79145 -0.81304,0.640787 -2.25998,0.640787 -0.57189,0 -1.1989,-0.124023 -0.627,-0.117133 -1.35736,-0.35829 v -1.309136 q 0.70968,0.36518 1.35736,0.551215 0.64768,0.179145 1.22646,0.179145 0.8406,0 1.30224,-0.337619 0.46165,-0.34451 0.46165,-0.957737 0,-0.881944 -1.6881,-1.219564 l -0.0551,-0.01378 -0.47543,-0.09646 q -1.09554,-0.213596 -1.59852,-0.71658 -0.50298,-0.509874 -0.50298,-1.384928 0,-1.109319 0.75103,-1.708769 0.75103,-0.60633 2.14285,-0.60633 0.62011,0 1.192,0.11713 0.57188,0.11024 1.1231,0.33762 z" />
        <path
           inkscape:connector-curvature="0"
           id="path4497"
           style="font-style:normal;font-variant:normal;font-weight:normal;font-stretch:normal;font-size:14.11111069px;line-height:125%;font-family:'DejaVu Sans Mono';-inkscape-font-specification:'DejaVu Sans Mono, Normal';font-variant-ligatures:normal;font-variant-caps:normal;font-variant-numeric:normal;font-feature-settings:normal;text-align:start;letter-spacing:0px;word-spacing:0px;writing-mode:lr-tb;text-anchor:start;fill:#000000;fill-opacity:1;stroke:none;stroke-width:0.26458332px;stroke-linecap:butt;stroke-linejoin:miter;stroke-opacity:1"
           d="m -349.26774,-101.15241 h 3.24528 v 6.731715 h 2.51492 v 0.985298 h -6.29764 v -0.985298 h 2.51492 v -5.746415 h -1.97748 z m 1.97748,-3.00412 h 1.2678 v 1.60541 h -1.2678 z" />
        <path
           inkscape:connector-curvature="0"
           id="path4499"
           style="font-style:normal;font-variant:normal;font-weight:normal;font-stretch:normal;font-size:14.11111069px;line-height:125%;font-family:'DejaVu Sans Mono';-inkscape-font-specification:'DejaVu Sans Mono, Normal';font-variant-ligatures:normal;font-variant-caps:normal;font-variant-numeric:normal;font-feature-settings:normal;text-align:start;letter-spacing:0px;word-spacing:0px;writing-mode:lr-tb;text-anchor:start;fill:#000000;fill-opacity:1;stroke:none;stroke-width:0.26458332px;stroke-linecap:butt;stroke-linejoin:miter;stroke-opacity:1"
           d="m -337.97868,-100.36693 q 0.23426,-0.49609 0.59255,-0.73036 0.36518,-0.24116 0.87506,-0.24116 0.93017,0 1.30913,0.72347 0.38585,0.716584 0.38585,2.707849 v 4.471734 h -1.15755 v -4.416613 q 0,-1.632975 -0.18603,-2.025716 -0.17915,-0.399634 -0.66146,-0.399634 -0.55122,0 -0.75792,0.427195 -0.19982,0.420302 -0.19982,1.998155 v 4.416613 h -1.15755 v -4.416613 q 0,-1.653645 -0.19982,-2.039496 -0.19292,-0.385854 -0.7028,-0.385854 -0.50298,0 -0.7028,0.427195 -0.19292,0.420302 -0.19292,1.998155 v 4.416613 h -1.15066 v -7.717013 h 1.15066 v 0.66146 q 0.22738,-0.41341 0.565,-0.62701 0.3445,-0.22049 0.77859,-0.22049 0.52365,0 0.86816,0.24116 0.3514,0.24116 0.54433,0.73036 z" />
        <path
           inkscape:connector-curvature="0"
           id="path4501"
           style="font-style:normal;font-variant:normal;font-weight:normal;font-stretch:normal;font-size:14.11111069px;line-height:125%;font-family:'DejaVu Sans Mono';-inkscape-font-specification:'DejaVu Sans Mono, Normal';font-variant-ligatures:normal;font-variant-caps:normal;font-variant-numeric:normal;font-feature-settings:normal;text-align:start;letter-spacing:0px;word-spacing:0px;writing-mode:lr-tb;text-anchor:start;fill:#000000;fill-opacity:1;stroke:none;stroke-width:0.26458332px;stroke-linecap:butt;stroke-linejoin:miter;stroke-opacity:1"
           d="m -332.80415,-96.356838 v -4.781792 h 1.26779 v 4.781792 q 0,1.040419 0.36518,1.529622 0.37207,0.489204 1.14377,0.489204 0.89573,0 1.37115,-0.627008 0.47542,-0.633897 0.47542,-1.81212 v -4.36149 h 1.27469 v 7.703233 h -1.27469 v -1.157552 q -0.33762,0.668348 -0.92328,1.012858 -0.57878,0.344509 -1.35737,0.344509 -1.18511,0 -1.76389,-0.771701 -0.57877,-0.778592 -0.57877,-2.349555 z" />
        <g
           transform="matrix(0.1354834,0,0,0.15277113,-314.67416,-110.63108)"
           id="g4546"
           inkscape:export-xdpi="81.280762"
           inkscape:export-ydpi="81.280762"
           style="stroke-width:5.56019354;stroke-miterlimit:4;stroke-dasharray:none">
          <path
             sodipodi:nodetypes="ccccc"
             inkscape:connector-curvature="0"
             id="path4540"
             d="m -407.42261,60.624667 -30.43431,9.806841 30.43431,17.571536 30.4343,-17.571536 z"
             style="opacity:1;fill:#e6e6e6;fill-opacity:1;fill-rule:evenodd;stroke:#ff6600;stroke-width:5.56019354;stroke-linecap:square;stroke-linejoin:round;stroke-miterlimit:4;stroke-dasharray:none;stroke-dashoffset:0;stroke-opacity:1;paint-order:fill markers stroke" />
          <path
             sodipodi:nodetypes="ccccc"
             inkscape:connector-curvature="0"
             id="path4542"
             d="m -376.98831,70.431508 -30.4343,8.310646 v 35.143076 l 30.4343,-8.31065 z"
             style="opacity:1;fill:#b3b3b3;fill-opacity:1;fill-rule:evenodd;stroke:#ff6600;stroke-width:5.56019354;stroke-linecap:square;stroke-linejoin:round;stroke-miterlimit:4;stroke-dasharray:none;stroke-dashoffset:0;stroke-opacity:1;paint-order:fill markers stroke" />
          <path
             sodipodi:nodetypes="ccccc"
             style="opacity:1;fill:#cccccc;fill-opacity:1;fill-rule:evenodd;stroke:#ff6600;stroke-width:5.56019354;stroke-linecap:square;stroke-linejoin:round;stroke-miterlimit:4;stroke-dasharray:none;stroke-dashoffset:0;stroke-opacity:1;paint-order:fill markers stroke"
             d="m -407.42261,113.97877 -30.43431,-8.40419 V 70.431508 l 30.43431,8.404192 z"
             id="path4544"
             inkscape:connector-curvature="0" />
        </g>
      </g>
    </g>
    <g
       style="stroke-width:5.56019354;stroke-miterlimit:4;stroke-dasharray:none"
       inkscape:export-ydpi="81.280762"
       inkscape:export-xdpi="81.280762"
       id="g4547"
       transform="matrix(0.1505367,0,0,0.16974524,-313.52386,-127.17184)">
      <path
         style="opacity:1;fill:#e6e6e6;fill-opacity:1;fill-rule:evenodd;stroke:#ff6600;stroke-width:5.56019354;stroke-linecap:square;stroke-linejoin:round;stroke-miterlimit:4;stroke-dasharray:none;stroke-dashoffset:0;stroke-opacity:1;paint-order:fill markers stroke"
         d="m -407.42261,60.624667 -30.43431,9.806841 30.43431,17.571536 30.4343,-17.571536 z"
         id="path4541"
         inkscape:connector-curvature="0"
         sodipodi:nodetypes="ccccc" />
      <path
         style="opacity:1;fill:#b3b3b3;fill-opacity:1;fill-rule:evenodd;stroke:#ff6600;stroke-width:5.56019354;stroke-linecap:square;stroke-linejoin:round;stroke-miterlimit:4;stroke-dasharray:none;stroke-dashoffset:0;stroke-opacity:1;paint-order:fill markers stroke"
         d="m -376.98831,70.431508 -30.4343,8.310646 v 35.143076 l 30.4343,-8.31065 z"
         id="path4543"
         inkscape:connector-curvature="0"
         sodipodi:nodetypes="ccccc" />
      <path
         inkscape:connector-curvature="0"
         id="path4545"
         d="m -407.42261,113.97877 -30.43431,-8.40419 V 70.431508 l 30.43431,8.404192 z"
         style="opacity:1;fill:#cccccc;fill-opacity:1;fill-rule:evenodd;stroke:#ff6600;stroke-width:5.56019354;stroke-linecap:square;stroke-linejoin:round;stroke-miterlimit:4;stroke-dasharray:none;stroke-dashoffset:0;stroke-opacity:1;paint-order:fill markers stroke"
         sodipodi:nodetypes="ccccc" />
    </g>
    <g
       inkscape:export-ydpi="91.649879"
       inkscape:export-xdpi="91.649879"
       id="g4626"
       transform="translate(32.653539,-27.921623)">
      <path
         inkscape:connector-curvature="0"
         id="path4606"
         style="font-style:normal;font-variant:normal;font-weight:normal;font-stretch:normal;font-size:14.11111069px;line-height:125%;font-family:'DejaVu Sans Mono';-inkscape-font-specification:'DejaVu Sans Mono, Normal';font-variant-ligatures:normal;font-variant-caps:normal;font-variant-numeric:normal;font-feature-settings:normal;text-align:start;letter-spacing:0px;word-spacing:0px;writing-mode:lr-tb;text-anchor:start;fill:#000000;fill-opacity:1;stroke:none;stroke-width:0.26458332px;stroke-linecap:butt;stroke-linejoin:miter;stroke-opacity:1"
         d="m -376.7904,-97.287014 q 0,-1.474501 -0.46854,-2.225532 -0.46853,-0.751034 -1.38493,-0.751034 -0.92328,0 -1.3987,0.757925 -0.47543,0.75103 -0.47543,2.218641 0,1.460721 0.47543,2.218642 0.47542,0.757921 1.3987,0.757921 0.9164,0 1.38493,-0.751031 0.46854,-0.751031 0.46854,-2.225532 z m -3.7276,-2.880096 q 0.30317,-0.565 0.83372,-0.86817 0.53743,-0.30317 1.24023,-0.30317 1.39182,0 2.19108,1.07487 0.79926,1.067983 0.79926,2.949005 0,1.908583 -0.80615,2.997233 -0.79926,1.08176 -2.19797,1.08176 -0.68902,0 -1.21956,-0.296278 -0.52366,-0.303168 -0.84061,-0.875054 v 0.971517 h -1.26779 v -10.721133 h 1.26779 z" />
      <path
         inkscape:connector-curvature="0"
         id="path4608"
         style="font-style:normal;font-variant:normal;font-weight:normal;font-stretch:normal;font-size:14.11111069px;line-height:125%;font-family:'DejaVu Sans Mono';-inkscape-font-specification:'DejaVu Sans Mono, Normal';font-variant-ligatures:normal;font-variant-caps:normal;font-variant-numeric:normal;font-feature-settings:normal;text-align:start;letter-spacing:0px;word-spacing:0px;writing-mode:lr-tb;text-anchor:start;fill:#000000;fill-opacity:1;stroke:none;stroke-width:0.26458332px;stroke-linecap:butt;stroke-linejoin:miter;stroke-opacity:1"
         d="m -357.4995,-101.15241 -2.76296,3.693141 3.03168,4.023872 h -1.46761 l -2.25998,-3.093696 -2.25309,3.093696 h -1.46762 l 3.03169,-4.023872 -2.76297,-3.693141 h 1.4056 l 2.04639,2.790526 2.0326,-2.790526 z" />
      <path
         inkscape:connector-curvature="0"
         id="path4610"
         style="font-style:normal;font-variant:normal;font-weight:normal;font-stretch:normal;font-size:14.11111069px;line-height:125%;font-family:'DejaVu Sans Mono';-inkscape-font-specification:'DejaVu Sans Mono, Normal';font-variant-ligatures:normal;font-variant-caps:normal;font-variant-numeric:normal;font-feature-settings:normal;text-align:start;letter-spacing:0px;word-spacing:0px;writing-mode:lr-tb;text-anchor:start;fill:#000000;fill-opacity:1;stroke:none;stroke-width:0.26458332px;stroke-linecap:butt;stroke-linejoin:miter;stroke-opacity:1"
         d="m -351.22593,-100.88369 v 1.240231 q -0.54432,-0.316949 -1.09554,-0.475421 -0.55122,-0.15848 -1.1231,-0.15848 -0.86128,0 -1.28847,0.282501 -0.4203,0.275608 -0.4203,0.847494 0,0.516764 0.31695,0.771701 0.31695,0.254937 1.57785,0.496094 l 0.50988,0.09646 q 0.94395,0.179145 1.42627,0.71658 0.4892,0.537435 0.4892,1.398709 0,1.143772 -0.81304,1.79145 -0.81304,0.640787 -2.25998,0.640787 -0.57189,0 -1.1989,-0.124023 -0.627,-0.117133 -1.35736,-0.35829 v -1.309136 q 0.70968,0.36518 1.35736,0.551215 0.64768,0.179145 1.22646,0.179145 0.8406,0 1.30224,-0.337619 0.46165,-0.34451 0.46165,-0.957737 0,-0.881944 -1.6881,-1.219564 l -0.0551,-0.01378 -0.47543,-0.09646 q -1.09554,-0.213596 -1.59852,-0.71658 -0.50298,-0.509874 -0.50298,-1.384928 0,-1.109319 0.75103,-1.708769 0.75103,-0.60633 2.14285,-0.60633 0.62011,0 1.192,0.11713 0.57188,0.11024 1.1231,0.33762 z" />
      <path
         inkscape:connector-curvature="0"
         id="path4612"
         style="font-style:normal;font-variant:normal;font-weight:normal;font-stretch:normal;font-size:14.11111069px;line-height:125%;font-family:'DejaVu Sans Mono';-inkscape-font-specification:'DejaVu Sans Mono, Normal';font-variant-ligatures:normal;font-variant-caps:normal;font-variant-numeric:normal;font-feature-settings:normal;text-align:start;letter-spacing:0px;word-spacing:0px;writing-mode:lr-tb;text-anchor:start;fill:#000000;fill-opacity:1;stroke:none;stroke-width:0.26458332px;stroke-linecap:butt;stroke-linejoin:miter;stroke-opacity:1"
         d="m -349.26774,-101.15241 h 3.24528 v 6.731715 h 2.51492 v 0.985298 h -6.29764 v -0.985298 h 2.51492 v -5.746415 h -1.97748 z m 1.97748,-3.00412 h 1.2678 v 1.60541 h -1.2678 z" />
      <path
         inkscape:connector-curvature="0"
         id="path4614"
         style="font-style:normal;font-variant:normal;font-weight:normal;font-stretch:normal;font-size:14.11111069px;line-height:125%;font-family:'DejaVu Sans Mono';-inkscape-font-specification:'DejaVu Sans Mono, Normal';font-variant-ligatures:normal;font-variant-caps:normal;font-variant-numeric:normal;font-feature-settings:normal;text-align:start;letter-spacing:0px;word-spacing:0px;writing-mode:lr-tb;text-anchor:start;fill:#000000;fill-opacity:1;stroke:none;stroke-width:0.26458332px;stroke-linecap:butt;stroke-linejoin:miter;stroke-opacity:1"
         d="m -337.97868,-100.36693 q 0.23426,-0.49609 0.59255,-0.73036 0.36518,-0.24116 0.87506,-0.24116 0.93017,0 1.30913,0.72347 0.38585,0.716584 0.38585,2.707849 v 4.471734 h -1.15755 v -4.416613 q 0,-1.632975 -0.18603,-2.025716 -0.17915,-0.399634 -0.66146,-0.399634 -0.55122,0 -0.75792,0.427195 -0.19982,0.420302 -0.19982,1.998155 v 4.416613 h -1.15755 v -4.416613 q 0,-1.653645 -0.19982,-2.039496 -0.19292,-0.385854 -0.7028,-0.385854 -0.50298,0 -0.7028,0.427195 -0.19292,0.420302 -0.19292,1.998155 v 4.416613 h -1.15066 v -7.717013 h 1.15066 v 0.66146 q 0.22738,-0.41341 0.565,-0.62701 0.3445,-0.22049 0.77859,-0.22049 0.52365,0 0.86816,0.24116 0.3514,0.24116 0.54433,0.73036 z" />
      <path
         inkscape:connector-curvature="0"
         id="path4616"
         style="font-style:normal;font-variant:normal;font-weight:normal;font-stretch:normal;font-size:14.11111069px;line-height:125%;font-family:'DejaVu Sans Mono';-inkscape-font-specification:'DejaVu Sans Mono, Normal';font-variant-ligatures:normal;font-variant-caps:normal;font-variant-numeric:normal;font-feature-settings:normal;text-align:start;letter-spacing:0px;word-spacing:0px;writing-mode:lr-tb;text-anchor:start;fill:#000000;fill-opacity:1;stroke:none;stroke-width:0.26458332px;stroke-linecap:butt;stroke-linejoin:miter;stroke-opacity:1"
         d="m -332.80415,-96.356838 v -4.781792 h 1.26779 v 4.781792 q 0,1.040419 0.36518,1.529622 0.37207,0.489204 1.14377,0.489204 0.89573,0 1.37115,-0.627008 0.47542,-0.633897 0.47542,-1.81212 v -4.36149 h 1.27469 v 7.703233 h -1.27469 v -1.157552 q -0.33762,0.668348 -0.92328,1.012858 -0.57878,0.344509 -1.35737,0.344509 -1.18511,0 -1.76389,-0.771701 -0.57877,-0.778592 -0.57877,-2.349555 z" />
      <g
         transform="matrix(0.1354834,0,0,0.15277113,-314.67416,-110.63108)"
         id="g4624"
         inkscape:export-xdpi="81.280762"
         inkscape:export-ydpi="81.280762"
         style="stroke-width:5.56019354;stroke-miterlimit:4;stroke-dasharray:none">
        <path
           sodipodi:nodetypes="ccccc"
           inkscape:connector-curvature="0"
           id="path4618"
           d="m -407.42261,60.624667 -30.43431,9.806841 30.43431,17.571536 30.4343,-17.571536 z"
           style="opacity:1;fill:#e6e6e6;fill-opacity:1;fill-rule:evenodd;stroke:#ff6600;stroke-width:5.56019354;stroke-linecap:square;stroke-linejoin:round;stroke-miterlimit:4;stroke-dasharray:none;stroke-dashoffset:0;stroke-opacity:1;paint-order:fill markers stroke" />
        <path
           sodipodi:nodetypes="ccccc"
           inkscape:connector-curvature="0"
           id="path4620"
           d="m -376.98831,70.431508 -30.4343,8.310646 v 35.143076 l 30.4343,-8.31065 z"
           style="opacity:1;fill:#b3b3b3;fill-opacity:1;fill-rule:evenodd;stroke:#ff6600;stroke-width:5.56019354;stroke-linecap:square;stroke-linejoin:round;stroke-miterlimit:4;stroke-dasharray:none;stroke-dashoffset:0;stroke-opacity:1;paint-order:fill markers stroke" />
        <path
           sodipodi:nodetypes="ccccc"
           style="opacity:1;fill:#cccccc;fill-opacity:1;fill-rule:evenodd;stroke:#ff6600;stroke-width:5.56019354;stroke-linecap:square;stroke-linejoin:round;stroke-miterlimit:4;stroke-dasharray:none;stroke-dashoffset:0;stroke-opacity:1;paint-order:fill markers stroke"
           d="m -407.42261,113.97877 -30.43431,-8.40419 V 70.431508 l 30.43431,8.404192 z"
           id="path4622"
           inkscape:connector-curvature="0" />
      </g>
    </g>
  </g>
</svg>
